<?xml version="1.0" encoding="UTF-8"?>
<svg xmlns="http://www.w3.org/2000/svg" xmlns:xlink="http://www.w3.org/1999/xlink" version="1.2" >
<font id="Zevida Bold">
<font-face  font-family="Zevida" units-per-em="1024" ascent="975" descent="-300" font-style="normal" font-weight="700" font-stretch="normal" cap-height="999" x-height="488" underline-position="-125" underline-thickness="50" />
<missing-glyph  horiz-adv-x="100" d="" />
<glyph glyph-name="NULL" d="" />
<glyph glyph-name="CR" unicode="&#xd;" horiz-adv-x="256" d="" />
<glyph glyph-name="space" unicode="&#x20;" horiz-adv-x="250" d="" />
<glyph glyph-name="exclam" unicode="&#x21;" horiz-adv-x="225" d="M51 0 L176 0 L176 125 L51 125 L51 0 L51 0 Z M45 750 L45 440 L95 210 L130 210 L180 440 L180 750 L45 750 L45 750 Z " />
<glyph glyph-name="quotedbl" unicode="&#x22;" horiz-adv-x="465" d="M268 750 L268 630 L298 520 L353 520 L383 630 L383 750 L268 750 L268 750 Z M80 750 L80 630 L110 520 L165 520 L195 630 L195 750 L80 750 L80 750 Z " />
<glyph glyph-name="numbersign" unicode="&#x23;" horiz-adv-x="717" d="M479 750 L455 567 L315 567 L339 750 L229 750 L205 567 L76 567 L62 473 L192 473 L166 277 L28 277 L14 183 L153 183 L129 0 L239 0 L263 183 L403 183 L379 0 L489 0 L513 183 L635 183 L649 277 L526 277 L552 473 L683 473 L697 567 L565 567 L589 750 L479 750 L479 750 Z M302 473 L442 473 L416 277 L276 277 L302 473 L302 473 Z " />
<glyph glyph-name="dollar" unicode="&#x24;" horiz-adv-x="625" d="M327 825 L327 758 C311 759 294 759 277 759 L277 825 L202 825 L202 752 C94 730 37 660 37 546 C37 439 85 377 202 341 L202 135 C177 158 164 197 164 262 L98 264 C76 265 54 266 32 267 C32 237 34 210 37 186 L37 186 C53 68 109 20 202 2 L202 -74 L277 -74 L277 -7 C293 -8 310 -8 327 -8 L327 -74 L402 -74 L402 -4 C536 14 590 88 590 212 C590 333 536 400 402 437 L402 610 C423 589 440 557 455 509 L572 546 C532 674 479 728 402 749 L402 827 L327 825 L327 825 Z M36 269 L34 269 L36 269 L36 269 Z M277 463 L277 647 C295 647 312 646 327 644 L327 453 C309 456 292 459 277 463 L277 463 Z M202 494 C179 511 169 533 169 561 C169 591 180 614 202 628 L202 494 L202 494 Z M277 326 C293 323 311 320 326 317 L326 106 C308 106 291 107 276 109 L277 326 L277 326 Z M401 294 C443 274 461 247 461 209 C461 162 443 130 401 115 L401 294 L401 294 Z " />
<glyph glyph-name="percent" unicode="&#x25;" horiz-adv-x="780" d="M594 51 C550 51 533 82 533 141 C533 200 550 231 594 231 C639 231 656 200 656 141 C656 82 639 51 594 51 L594 51 Z M594 -9 C686 -9 721 43 721 141 C721 239 686 291 594 291 C503 291 468 239 468 141 C468 43 503 -9 594 -9 L594 -9 Z M186 519 C141 519 124 550 124 609 C124 668 141 699 186 699 C230 699 247 668 247 609 C247 550 230 519 186 519 L186 519 Z M186 459 C277 459 312 511 312 609 C312 707 277 759 186 759 C94 759 59 707 59 609 C59 511 94 459 186 459 L186 459 Z M160 0 L200 0 L620 750 L580 750 L160 0 L160 0 Z " />
<glyph glyph-name="ampersand" unicode="&#x26;" horiz-adv-x="700" d="M640 2 L625 99 C620 97 609 96 594 96 C560 96 539 104 520 120 C551 178 566 253 564 345 L459 369 C460 307 453 255 438 214 C387 277 348 326 320 360 C414 414 463 471 463 526 C463 637 407 695 300 695 C186 695 126 637 126 528 C126 455 140 402 165 370 C78 320 33 254 33 179 C33 49 109 -20 253 -20 C333 -20 398 -1 447 36 C492 -1 568 -26 638 1 L640 2 L640 2 Z M266 424 C245 445 234 483 234 536 C234 577 257 599 300 599 C342 599 364 572 364 520 C364 492 329 457 266 423 L266 424 L266 424 Z M368 119 C341 101 308 92 269 92 C194 92 154 127 154 193 C154 242 170 277 201 294 C206 297 212 300 219 304 C247 269 312 187 368 119 L368 119 Z " />
<glyph glyph-name="quotesingle" unicode="&#x27;" horiz-adv-x="245" d="M80 750 L80 630 L110 520 L165 520 L195 630 L195 750 L80 750 L80 750 Z " />
<glyph glyph-name="parenleft" unicode="&#x28;" horiz-adv-x="360" d="M300 795 C156 674 100 546 100 335 C100 132 156 6 300 -115 L340 -70 C221 30 175 143 175 335 C175 534 221 650 340 750 L300 795 L300 795 Z " />
<glyph glyph-name="parenright" unicode="&#x29;" horiz-adv-x="320" d="M60 -115 C204 6 260 134 260 345 C260 548 204 674 60 795 L20 750 C139 650 185 537 185 345 C185 146 139 30 20 -70 L60 -115 L60 -115 Z " />
<glyph glyph-name="asterisk" unicode="&#x2a;" horiz-adv-x="406" d="M340 694 L236 645 L251 759 L155 759 L170 645 L66 694 L36 603 L150 582 L70 498 L148 442 L148 441 L203 543 L258 442 L336 498 L336 499 L257 582 L370 603 L340 694 L340 694 Z " />
<glyph glyph-name="plus" unicode="&#x2b;" horiz-adv-x="590" d="M258 225 L258 0 L333 0 L333 225 L565 225 L565 295 L333 295 L333 520 L258 520 L258 295 L25 295 L25 225 L258 225 L258 225 Z " />
<glyph glyph-name="comma" unicode="&#x2c;" horiz-adv-x="225" d="M50 125 L50 0 L100 0 C100 -47 89 -60 50 -60 L50 -120 C148 -120 175 -94 175 0 L175 125 L50 125 L50 125 Z " />
<glyph glyph-name="hyphen" unicode="&#x2d;" horiz-adv-x="365" d="M50 216 L315 216 L315 311 L50 311 L50 216 L50 216 Z " />
<glyph glyph-name="period" unicode="&#x2e;" horiz-adv-x="225" d="M50 0 L175 0 L175 125 L50 125 L50 0 L50 0 Z " />
<glyph glyph-name="slash" unicode="&#x2f;" horiz-adv-x="320" d="M0 0 L50 0 L320 750 L270 750 L0 0 L0 0 Z " />
<glyph glyph-name="zero" unicode="0" horiz-adv-x="700" d="M185 375 C185 568 236 655 349 655 C461 655 512 568 512 375 C512 174 466 96 349 96 C231 96 185 174 185 375 L185 375 Z M52 375 C52 98 135 -9 349 -9 C562 -9 645 98 645 375 C645 639 553 759 349 759 C145 759 52 639 52 375 L52 375 Z " />
<glyph glyph-name="one" unicode="1" horiz-adv-x="430" d="M330 0 L330 750 L230 750 L50 578 L50 421 L202 569 L202 0 L330 0 L330 0 Z " />
<glyph glyph-name="two" unicode="2" horiz-adv-x="598" d="M45 0 L563 0 L563 124 L196 124 C217 194 266 230 365 286 C485 355 548 435 548 520 C548 677 462 759 299 759 C135 759 49 682 49 535 C49 475 65 424 94 386 L207 443 C185 472 173 503 173 535 C173 614 216 655 299 655 C378 655 420 612 420 529 C420 463 349 388 213 310 C81 234 45 196 45 0 L45 0 Z " />
<glyph glyph-name="three" unicode="3" horiz-adv-x="599" d="M46 245 C46 79 134 -9 300 -9 C466 -9 554 66 554 209 C554 306 507 374 417 409 C487 437 523 491 523 567 C523 693 445 760 298 760 C150 760 72 684 72 541 L200 541 C200 616 232 656 294 656 C366 656 404 622 404 556 C404 486 366 449 294 449 L214 449 L214 351 L274 351 C367 351 416 304 416 215 C416 144 376 106 299 106 C220 106 178 154 178 246 L46 245 L46 245 Z " />
<glyph glyph-name="four" unicode="4" horiz-adv-x="595" d="M25 315 L25 215 L132 216 L341 216 L341 0 L470 0 L470 216 L575 216 L575 330 L470 330 L470 750 L370 750 L25 315 L25 315 Z M154 330 L342 565 L340 553 L340 330 L154 330 L154 330 Z " />
<glyph glyph-name="five" unicode="5" horiz-adv-x="595" d="M74 350 L197 322 C234 363 269 384 300 384 C377 384 418 333 418 235 C418 150 378 105 301 105 C222 105 180 153 180 245 L47 245 C47 79 135 -9 301 -9 C467 -9 555 75 555 235 C555 401 476 488 325 488 C283 488 245 477 213 456 L233 631 L462 628 L462 627 L512 627 L521 750 L110 750 L74 350 L74 350 Z " />
<glyph glyph-name="six" unicode="6" horiz-adv-x="605" d="M555 634 C508 716 430 759 330 759 C133 759 56 624 56 369 C56 97 131 -9 324 -9 C492 -9 580 79 580 245 C580 411 497 498 340 498 C273 498 221 462 189 392 C189 566 228 659 330 659 C383 659 427 629 460 573 L555 634 L555 634 Z M316 394 C399 394 443 343 443 245 C443 147 402 96 324 96 C254 96 215 140 199 246 C199 344 240 395 317 395 L316 394 L316 394 Z " />
<glyph glyph-name="seven" unicode="7" horiz-adv-x="490" d="M30 750 L30 627 L371 627 C171 434 117 300 117 0 L259 0 C259 325 306 459 480 627 L480 750 L30 750 L30 750 Z " />
<glyph glyph-name="eight" unicode="8" horiz-adv-x="629" d="M205 554 C205 627 243 655 316 655 C395 655 426 620 426 554 C426 481 388 457 316 457 C232 457 205 490 205 554 L205 554 Z M86 565 C86 484 111 429 180 401 C99 374 57 314 57 202 C57 63 121 -10 316 -10 C485 -10 574 42 574 201 C574 303 541 370 451 400 C513 425 545 475 545 564 C545 691 481 758 316 758 C165 758 86 704 86 564 L86 565 L86 565 Z M194 211 C194 310 236 342 316 342 C407 342 437 297 437 213 C437 124 395 95 316 95 C224 95 194 135 194 211 L194 211 Z " />
<glyph glyph-name="nine" unicode="9" horiz-adv-x="605" d="M75 116 C122 34 200 -9 300 -9 C497 -9 574 126 574 381 C574 653 499 759 306 759 C138 759 50 671 50 505 C50 339 133 252 290 252 C357 252 409 288 441 358 C441 184 402 91 300 91 C247 91 203 121 170 177 L75 116 L75 116 Z M314 356 C231 356 187 407 187 505 C187 603 228 654 306 654 C376 654 415 610 431 504 C431 406 390 355 313 355 L314 356 L314 356 Z " />
<glyph glyph-name="colon" unicode="&#x3a;" horiz-adv-x="225" d="M50 395 L175 395 L175 520 L50 520 L50 395 L50 395 Z M50 0 L175 0 L175 125 L50 125 L50 0 L50 0 Z " />
<glyph glyph-name="semicolon" unicode="&#x3b;" horiz-adv-x="225" d="M50 395 L175 395 L175 520 L50 520 L50 395 L50 395 Z M50 125 L50 0 L100 0 C100 -47 89 -60 50 -60 L50 -120 C148 -120 175 -94 175 0 L175 125 L50 125 L50 125 Z " />
<glyph glyph-name="less" unicode="&#x3c;" horiz-adv-x="555" d="M495 494 L45 303 L45 218 L495 26 L495 121 L150 260 L495 399 L495 494 L495 494 Z " />
<glyph glyph-name="equal" unicode="&#x3d;" horiz-adv-x="604" d="M39 200 L39 130 L554 130 L554 200 L39 200 L39 200 Z M39 400 L39 330 L554 330 L554 400 L39 400 L39 400 Z " />
<glyph glyph-name="greater" unicode="&#x3e;" horiz-adv-x="555" d="M405 260 L60 121 L60 26 L510 218 L510 303 L60 494 L60 399 L405 260 L405 260 Z " />
<glyph glyph-name="question" unicode="&#x3f;" horiz-adv-x="565" d="M204 0 L329 0 L329 125 L204 125 L204 0 L204 0 Z M15 560 L126 540 C133 624 184 669 274 669 C353 669 395 630 395 555 C395 515 377 492 310 445 C219 381 211 362 211 210 L321 210 C321 312 327 325 391 370 C488 438 515 478 515 555 C515 689 432 759 274 759 C116 759 26 690 15 560 L15 560 Z " />
<glyph glyph-name="at" unicode="&#x40;" horiz-adv-x="1250" d="M1034 -116 C934 -186 803 -223 656 -223 C321 -223 144 -53 144 269 C144 591 318 761 648 761 C951 761 1110 622 1110 357 C1110 156 1057 50 957 50 C878 50 844 105 856 208 C856 208 868 499 891 499 L786 499 C780 499 775 480 771 451 C742 495 693 511 627 511 C460 511 362 428 343 270 C321 91 399 -4 567 -4 C654 -4 719 26 759 85 C781 19 836 -15 922 -15 C1101 -15 1195 114 1195 359 C1195 673 1006 838 648 838 C262 838 59 642 59 271 C59 -100 265 -296 656 -296 C813 -296 957 -253 1074 -171 L1034 -116 L1034 -116 Z M755 282 C753 241 752 210 752 210 C743 135 684 96 580 96 C487 96 445 156 459 271 C470 363 524 412 616 412 C703 412 752 382 756 282 L755 282 L755 282 Z " />
<glyph glyph-name="A" unicode="A" horiz-adv-x="725" d="M276 700 L29 50 C27 45 20 30 10 0 L147 0 L162 40 C165 47 167 50 166 50 L208 162 L519 162 L579 0 L716 0 C716 0 702 39 700 45 L436 750 L297 750 C295 745 288 730 278 700 L276 700 L276 700 Z M245 260 L365 582 L484 260 L245 260 L245 260 Z " />
<glyph glyph-name="B" unicode="B" horiz-adv-x="686" d="M87 0 L376 0 C592 0 651 48 651 225 C651 327 601 392 505 416 C581 438 620 484 620 552 C620 708 561 750 345 750 L87 750 L87 0 L87 0 Z M215 452 L215 650 L350 650 C458 650 487 627 487 543 C487 484 430 453 322 453 L215 452 L215 452 Z M215 100 L215 356 L321 356 C447 356 513 316 513 240 C513 130 476 100 340 100 L215 100 L215 100 Z " />
<glyph glyph-name="C" unicode="C" horiz-adv-x="722" d="M579 268 C579 155 512 96 384 96 C256 96 189 211 189 375 C189 540 256 655 384 655 C512 655 579 595 579 482 L702 489 C702 511 700 532 697 551 L697 551 C673 688 566 759 384 759 C167 759 52 601 52 375 C52 149 167 -9 384 -9 C592 -9 702 84 702 261 L579 268 L579 268 Z " />
<glyph glyph-name="D" unicode="D" horiz-adv-x="765" d="M350 0 C616 0 710 97 710 375 C710 645 601 750 320 750 L87 750 L87 0 L350 0 L350 0 Z M215 100 L215 650 L325 650 C504 650 573 573 573 375 C573 171 513 99 341 99 C300 99 256 100 215 100 L215 100 Z " />
<glyph glyph-name="E" unicode="E" horiz-adv-x="640" d="M590 105 L215 105 L215 337 L555 337 L555 437 L215 437 L215 646 L575 646 L575 750 L87 750 L87 0 L590 0 L590 105 L590 105 Z " />
<glyph glyph-name="F" unicode="F" horiz-adv-x="605" d="M545 337 L545 437 L215 437 L215 646 L575 646 L575 750 L87 750 L87 0 L215 0 L215 337 L545 337 L545 337 Z " />
<glyph glyph-name="G" unicode="G" horiz-adv-x="772" d="M374 329 L604 329 L604 153 C560 116 503 96 417 96 C268 96 189 192 189 375 C189 558 268 655 417 655 C539 655 603 602 603 500 L726 507 C726 672 619 759 417 759 C178 759 52 627 52 375 C52 123 178 -9 417 -9 C555 -9 650 25 727 90 L727 433 L374 433 L374 329 L374 329 Z " />
<glyph glyph-name="H" unicode="H" horiz-adv-x="778" d="M693 0 L693 750 L565 750 L565 447 L215 447 L215 750 L87 750 L87 0 L215 0 L215 343 L565 343 L565 0 L693 0 L693 0 Z " />
<glyph glyph-name="I" unicode="I" horiz-adv-x="301" d="M216 0 L216 750 L88 750 L88 0 L216 0 L216 0 Z " />
<glyph glyph-name="J" unicode="J" horiz-adv-x="565" d="M49 279 L49 216 C49 47 102 -9 265 -9 C420 -9 480 70 480 220 L480 750 L352 750 L352 220 C352 148 328 110 265 110 C199 110 177 145 177 252 L177 302 L49 279 L49 279 Z " />
<glyph glyph-name="K" unicode="K" horiz-adv-x="683" d="M673 0 L646 49 C646 50 646 50 646 50 L411 484 L318 381 L494 50 C493 50 496 45 501 36 L520 0 L673 0 L673 0 Z M605 700 C605 700 605 700 606 701 L645 744 C648 748 650 750 650 750 L493 750 C493 750 452 703 450 701 L213 426 L213 750 L85 750 L85 0 L213 0 L213 268 L214 268 C344 412 474 556 604 700 L605 700 L605 700 Z " />
<glyph glyph-name="L" unicode="L" horiz-adv-x="571" d="M541 105 L216 105 L216 750 L88 750 L88 0 L541 0 L541 105 L541 105 Z " />
<glyph glyph-name="M" unicode="M" horiz-adv-x="904" d="M819 0 L819 750 L618 750 L453 190 L283 750 L88 750 L88 0 L212 0 L212 598 L397 0 L511 0 L695 611 L695 0 L819 0 L819 0 Z " />
<glyph glyph-name="N" unicode="N" horiz-adv-x="748" d="M535 172 L230 750 L87 750 L87 0 L215 0 L215 508 L484 0 L663 0 L663 750 L535 750 L535 172 L535 172 Z " />
<glyph glyph-name="O" unicode="O" horiz-adv-x="814" d="M194 375 C194 549 275 655 408 655 C541 655 622 549 622 375 C622 192 548 96 408 96 C268 96 194 192 194 375 L194 375 Z M57 375 C57 123 178 -9 408 -9 C638 -9 759 123 759 375 C759 614 626 759 408 759 C190 759 57 614 57 375 L57 375 Z " />
<glyph glyph-name="P" unicode="P" horiz-adv-x="624" d="M215 0 L215 301 L326 301 C515 301 589 364 589 525 C589 687 515 750 326 750 L87 750 L87 0 L215 0 L215 0 Z M215 401 L215 650 L321 650 C422 650 461 615 461 525 C461 436 425 401 331 401 L215 401 L215 401 Z " />
<glyph glyph-name="Q" unicode="Q" horiz-adv-x="814" d="M194 375 C194 549 275 655 408 655 C541 655 622 549 622 375 C622 281 602 210 564 163 C544 190 521 219 496 251 L415 186 C438 157 459 130 478 105 C457 99 434 96 409 96 C269 96 195 192 195 375 L194 375 L194 375 Z M58 375 C58 123 179 -9 409 -9 C461 -9 508 -2 549 12 C597 -55 618 -89 618 -89 L700 -24 C700 -24 682 5 641 62 C719 125 759 230 759 375 C759 614 626 759 408 759 C190 759 57 614 57 375 L58 375 L58 375 Z " />
<glyph glyph-name="R" unicode="R" horiz-adv-x="624" d="M590 50 L432 329 C543 349 589 409 589 524 C589 686 515 749 326 749 L87 749 L87 -1 L215 -1 L215 320 L290 320 L471 -1 L618 -1 C614 6 591 49 589 49 L590 50 L590 50 Z M214 420 L214 649 L320 649 C421 649 460 614 460 524 C460 449 423 420 329 420 L214 420 L214 420 Z " />
<glyph glyph-name="S" unicode="S" horiz-adv-x="625" d="M98 265 C98 265 37 267 31 267 C31 255 33 185 36 185 C59 19 160 -9 333 -9 C518 -9 590 67 590 210 C590 351 516 419 327 451 C213 470 169 501 169 559 C169 615 208 645 283 645 C367 645 418 626 455 507 L572 544 C514 730 428 759 283 759 C122 759 37 686 37 546 C37 415 109 352 293 321 C415 300 462 268 462 206 C462 139 426 103 333 103 C222 103 164 125 164 263 L98 265 L98 265 Z M36 267 L34 267 L36 267 L36 267 Z " />
<glyph glyph-name="T" unicode="T" horiz-adv-x="595" d="M362 0 L362 646 L585 646 L585 750 L10 750 L10 646 L233 646 L233 0 L362 0 L362 0 Z " />
<glyph glyph-name="U" unicode="U" horiz-adv-x="731" d="M80 289 C80 74 160 -9 366 -9 C571 -9 651 74 651 289 L651 750 L523 750 L523 312 C523 166 479 110 366 110 C252 110 208 166 208 312 L208 750 L80 750 L80 289 L80 289 Z " />
<glyph glyph-name="V" unicode="V" horiz-adv-x="632" d="M28 700 L258 0 L381 0 L606 700 C606 700 611 716 615 730 L622 751 L485 751 L471 705 C470 702 469 701 469 701 L317 191 L162 703 C161 707 148 751 148 751 L11 751 C13 745 27 701 28 701 L28 700 L28 700 Z " />
<glyph glyph-name="W" unicode="W" horiz-adv-x="822" d="M22 700 L167 0 L291 0 L411 493 L529 0 L652 0 L802 704 C804 713 809 741 811 750 L674 750 C674 750 666 707 665 702 L586 271 L472 750 L348 750 L238 271 L155 709 C154 718 148 750 148 750 L11 750 L14 737 C16 727 21 700 22 700 L22 700 Z " />
<glyph glyph-name="X" unicode="X" horiz-adv-x="626" d="M16 0 L160 0 L188 45 C190 48 191 50 191 50 L325 267 L450 50 C449 50 450 49 452 46 L478 0 L611 0 C611 0 586 43 583 47 L392 378 L593 705 C597 711 621 750 621 750 L476 750 L449 707 C446 702 444 700 445 700 L322 500 L207 700 C207 700 206 701 205 703 L178 750 L46 750 C46 750 69 709 72 704 L253 388 L41 43 C37 36 15 -1 15 -1 L16 0 L16 0 Z " />
<glyph glyph-name="Y" unicode="Y" horiz-adv-x="627" d="M145 750 L17 750 C23 740 43 705 46 700 L254 330 L254 0 L382 0 L382 330 L590 700 C591 700 596 709 619 750 L491 750 C487 743 463 700 463 700 L319 439 L175 700 C175 700 169 710 147 750 L145 750 L145 750 Z " />
<glyph glyph-name="Z" unicode="Z" horiz-adv-x="655" d="M610 105 L204 105 L610 646 L610 750 L60 750 L60 646 L451 646 L45 105 L45 0 L610 0 L610 105 L610 105 Z " />
<glyph glyph-name="bracketleft" unicode="&#x5b;" horiz-adv-x="360" d="M200 685 L330 685 L330 750 L125 750 L125 -115 L330 -115 L330 -50 L200 -50 L200 685 L200 685 Z " />
<glyph glyph-name="backslash" unicode="&#x5c;" horiz-adv-x="340" d="M290 0 L340 0 L50 750 L0 750 L290 0 L290 0 Z " />
<glyph glyph-name="bracketright" unicode="&#x5d;" horiz-adv-x="360" d="M160 685 L160 -50 L30 -50 L30 -115 L235 -115 L235 750 L30 750 L30 685 L160 685 L160 685 Z " />
<glyph glyph-name="asciicircum" unicode="&#x5e;" horiz-adv-x="340" d="M170 660 C191 660 235 600 235 600 L340 600 L228 750 L112 750 L0 600 L105 600 L170 660 L170 660 Z " />
<glyph glyph-name="underscore" unicode="&#x5f;" horiz-adv-x="680" d="M50 -135 L630 -135 L630 -65 L50 -65 L50 -135 L50 -135 Z " />
<glyph glyph-name="grave" unicode="&#x60;" horiz-adv-x="340" d="M118 600 L223 600 L170 750 L20 750 L118 600 L118 600 Z " />
<glyph glyph-name="a" unicode="a" horiz-adv-x="550" d="M54 297 L162 316 C162 393 198 434 265 434 C327 434 360 424 360 385 C360 324 303 304 194 286 C93 270 40 220 40 142 C40 43 74 -9 200 -9 C275 -9 329 2 361 47 C366 -3 392 0 520 0 L520 85 C473 85 475 84 475 110 L475 336 C475 488 403 529 265 529 C127 529 54 449 54 297 L54 297 Z M360 242 L360 177 C353 87 311 70 235 70 C172 70 155 96 155 146 C155 178 192 202 262 213 C302 220 335 228 360 242 L360 242 Z " />
<glyph glyph-name="b" unicode="b" horiz-adv-x="599" d="M185 0 L185 54 C220 9 273 -9 343 -9 C479 -9 550 84 550 260 C550 436 479 529 343 529 C273 529 220 511 185 466 L185 750 L70 750 L70 0 L185 0 L185 0 Z M185 260 C185 391 226 434 304 434 C383 434 424 374 424 260 C424 146 383 86 304 86 C226 86 185 129 185 260 L185 260 Z " />
<glyph glyph-name="c" unicode="c" horiz-adv-x="556" d="M413 200 C413 125 372 86 294 86 C216 86 175 129 175 260 C175 395 216 439 294 439 C389 439 415 389 415 293 C452 286 489 279 526 272 C526 301 524 328 521 352 L521 352 C504 467 444 527 294 527 C134 527 50 461 50 258 C50 55 134 -11 294 -11 C446 -11 526 68 526 218 L413 200 L413 200 Z M521 272 L524 271 L521 271 L521 272 L521 272 Z " />
<glyph glyph-name="d" unicode="d" horiz-adv-x="601" d="M175 260 C175 374 217 434 296 434 C375 434 416 374 416 260 C416 146 375 86 296 86 C217 86 175 146 175 260 L175 260 Z M50 260 C50 84 122 -9 258 -9 C328 -9 381 16 416 64 L416 1 L531 1 L531 751 L416 751 L416 458 C381 506 328 531 258 531 C122 531 50 438 50 262 L50 260 L50 260 Z " />
<glyph glyph-name="e" unicode="e" horiz-adv-x="562" d="M419 200 C419 125 375 86 291 86 C217 86 177 127 175 250 L548 250 C548 433 495 529 299 529 C136 529 50 463 50 260 C50 57 133 -9 291 -9 C449 -9 532 70 532 220 L419 200 L419 200 Z M427 330 L180 330 C194 411 235 439 300 439 C379 439 415 402 428 330 L427 330 L427 330 Z " />
<glyph glyph-name="f" unicode="f" horiz-adv-x="410" d="M225 0 L225 430 L340 430 L340 520 L225 520 L225 605 C225 645 236 656 276 656 L290 656 L290 655 L340 655 L340 750 L245 750 C139 750 110 719 110 605 L110 520 L30 520 L30 430 L110 430 L110 0 L225 0 L225 0 Z " />
<glyph glyph-name="g" unicode="g" horiz-adv-x="591" d="M50 6 C-73 -157 30 -202 288 -202 C471 -202 521 -115 521 49 L521 520 L406 520 L406 458 C372 505 321 529 253 529 C120 529 50 471 50 260 C50 56 120 0 253 0 C321 0 372 23 406 68 L406 0 C406 -71 379 -108 278 -108 C164 -108 119 -88 173 -16 L50 6 L50 6 Z M175 260 C175 397 215 434 291 434 C366 434 406 374 406 260 C406 152 366 95 291 95 C215 95 175 130 175 260 L175 260 Z " />
<glyph glyph-name="h" unicode="h" horiz-adv-x="555" d="M485 0 L485 315 C485 466 433 525 333 525 C266 525 216 503 185 461 L185 750 L70 750 L70 0 L185 0 L185 320 C185 386 221 420 289 420 C342 420 370 391 370 315 L370 0 L485 0 L485 0 Z " />
<glyph glyph-name="i" unicode="i" horiz-adv-x="255" d="M65 600 L190 600 L190 725 L65 725 L65 600 L65 600 Z M185 0 L185 520 L70 520 L70 0 L185 0 L185 0 Z " />
<glyph glyph-name="j" unicode="j" horiz-adv-x="255" d="M65 600 L190 600 L190 725 L65 725 L65 600 L65 600 Z M-15 -75 L-15 -170 L51 -170 C165 -170 185 0 185 0 L185 520 L70 520 L70 0 C70 0 63 -75 20 -75 L-15 -75 L-15 -75 Z " />
<glyph glyph-name="k" unicode="k" horiz-adv-x="520" d="M309 470 L185 334 L185 750 L70 750 L70 0 L185 0 L185 193 L249 260 L372 -1 L510 -1 C510 -1 493 34 489 41 L336 352 L447 469 C448 469 448 470 450 473 L476 500 C488 512 494 519 494 519 L354 519 L336 499 C324 486 306 469 308 469 L309 470 L309 470 Z " />
<glyph glyph-name="l" unicode="l" horiz-adv-x="255" d="M185 0 L185 750 L70 750 L70 0 L185 0 L185 0 Z " />
<glyph glyph-name="m" unicode="m" horiz-adv-x="839" d="M774 0 L774 315 C774 466 722 525 624 525 C545 525 491 494 463 435 C441 498 396 525 330 525 C264 525 215 504 184 463 L184 521 L69 521 L69 1 L184 1 L184 321 C184 387 219 421 284 421 C336 421 363 392 363 316 L363 1 L478 1 L478 316 C478 385 510 421 579 421 C631 421 658 392 658 316 L658 1 L774 0 L774 0 Z " />
<glyph glyph-name="n" unicode="n" horiz-adv-x="550" d="M485 0 L485 315 C485 466 433 525 333 525 C266 525 216 503 185 461 L185 520 L70 520 L70 0 L185 0 L185 320 C185 386 221 420 289 420 C342 420 370 391 370 315 L370 0 L485 0 L485 0 Z " />
<glyph glyph-name="o" unicode="o" horiz-adv-x="590" d="M175 260 C175 399 216 444 295 444 C385 444 415 381 415 260 C415 121 374 76 295 76 C205 76 175 139 175 260 L175 260 Z M50 260 C50 84 110 -9 295 -9 C455 -9 540 57 540 260 C540 436 480 529 295 529 C135 529 50 463 50 260 L50 260 Z " />
<glyph glyph-name="p" unicode="p" horiz-adv-x="599" d="M185 -155 L185 54 C220 9 273 -9 343 -9 C479 -9 550 84 550 260 C550 436 479 529 343 529 C273 529 220 511 185 466 L185 520 L70 520 L70 -155 L185 -155 L185 -155 Z M185 260 C185 391 226 434 304 434 C383 434 424 374 424 260 C424 146 383 86 304 86 C226 86 185 129 185 260 L185 260 Z " />
<glyph glyph-name="q" unicode="q" horiz-adv-x="601" d="M175 260 C175 374 217 434 296 434 C375 434 416 374 416 260 C416 146 375 86 296 86 C217 86 175 146 175 260 L175 260 Z M50 260 C50 84 122 -9 258 -9 C328 -9 381 16 416 64 L416 -154 L531 -154 L531 521 L416 521 L416 458 C381 506 328 531 258 531 C122 531 50 438 50 262 L50 260 L50 260 Z " />
<glyph glyph-name="r" unicode="r" horiz-adv-x="370" d="M350 395 L350 520 C266 520 216 498 185 444 L185 520 L70 520 L70 0 L185 0 L185 230 C185 338 216 395 329 395 L350 395 L350 395 Z " />
<glyph glyph-name="s" unicode="s" horiz-adv-x="500" d="M81 225 C81 227 30 235 25 236 C25 48 105 -3 256 -3 C396 -3 470 48 470 144 C470 234 414 289 271 312 C197 324 168 349 168 388 C168 423 199 441 258 441 C322 441 355 416 355 323 C387 318 419 312 451 307 L456 306 C456 479 388 526 258 526 C128 526 59 475 59 379 C59 287 110 231 243 210 C324 197 355 172 355 133 C355 103 321 87 256 87 C177 87 136 115 136 216 L81 225 L81 225 Z M30 235 L25 236 L30 236 L30 235 L30 235 Z M451 307 L454 306 L451 306 L451 307 L451 307 Z " />
<glyph glyph-name="t" unicode="t" horiz-adv-x="345" d="M315 520 L205 520 L205 751 L90 655 L90 520 L10 520 L10 430 L90 430 L90 145 C90 26 85 0 203 0 L315 0 L315 94 L253 94 C203 94 205 103 205 145 L205 430 L315 430 L315 520 L315 520 Z " />
<glyph glyph-name="u" unicode="u" horiz-adv-x="550" d="M480 0 L480 520 L365 520 L365 210 C365 135 330 95 263 95 C192 95 180 124 180 200 L180 520 L65 520 L65 200 C65 49 89 -9 227 -9 C291 -9 337 17 365 67 L365 1 L480 0 L480 0 Z " />
<glyph glyph-name="v" unicode="v" horiz-adv-x="491" d="M140 520 L10 520 C12 515 26 470 27 470 L182 0 L307 0 L469 482 C472 491 482 520 482 520 L352 520 L345 496 C340 481 337 471 337 471 L244 137 L154 471 C154 471 143 511 140 521 L140 520 L140 520 Z " />
<glyph glyph-name="w" unicode="w" horiz-adv-x="727" d="M571 0 L703 470 C703 470 703 470 703 471 L710 495 C715 511 717 521 717 521 L595 521 L585 475 C584 472 584 471 584 471 L511 138 L414 521 L314 521 L217 138 L143 472 C143 474 132 521 132 521 L10 521 C10 521 13 508 17 493 L22 474 C23 472 23 471 23 471 L156 1 L271 1 L363 338 L455 1 L571 0 L571 0 Z " />
<glyph glyph-name="x" unicode="x" horiz-adv-x="507" d="M-33 0 L107 0 L137 43 C140 48 142 50 141 50 L234 184 L327 50 C326 50 328 48 331 43 L361 0 L501 0 C501 0 476 37 471 44 L303 286 L436 477 C441 484 466 521 466 521 L326 521 L296 478 C293 473 291 471 292 471 L234 387 L176 471 C177 471 175 473 172 478 L142 521 L2 521 C2 521 27 484 32 477 L165 286 L-3 44 C-8 37 -33 0 -33 0 L-33 0 Z " />
<glyph glyph-name="y" unicode="y" horiz-adv-x="490" d="M45 -200 L95 -200 C217 -200 244 -183 276 -84 L466 480 C469 488 480 520 480 520 L350 520 L339 484 C336 475 334 471 335 471 L243 155 L153 474 C152 477 150 484 147 494 L139 521 L9 521 C9 521 19 491 22 482 L191 -21 L186 -40 C169 -91 156 -100 94 -100 L44 -100 L45 -200 L45 -200 Z " />
<glyph glyph-name="z" unicode="z" horiz-adv-x="460" d="M45 430 L278 430 L30 70 L30 0 L440 0 L440 90 L170 90 L424 450 L424 520 L45 520 L45 430 L45 430 Z " />
<glyph glyph-name="braceleft" unicode="&#x7b;" horiz-adv-x="342" d="M312 750 L242 750 C165 750 125 708 125 627 L125 401 C125 359 100 345 55 345 L55 290 C100 290 125 276 125 234 L125 8 C125 -73 165 -115 242 -115 L312 -115 L312 -50 L242 -50 C214 -50 200 -30 200 8 L200 219 C200 275 184 309 153 318 C184 327 200 361 200 417 L200 628 C200 666 214 686 242 686 L312 686 L312 750 L312 750 Z " />
<glyph glyph-name="bar" unicode="&#x7c;" horiz-adv-x="165" d="M45 800 L45 -250 L120 -250 L120 800 L45 800 L45 800 Z " />
<glyph glyph-name="braceright" unicode="&#x7d;" horiz-adv-x="342" d="M30 750 L30 685 L100 685 C128 685 142 665 142 627 L142 416 C142 360 158 326 189 317 C158 308 142 274 142 218 L142 7 C142 -31 128 -51 100 -51 L30 -51 L30 -116 L100 -116 C177 -116 217 -74 217 7 L217 233 C217 275 242 289 287 289 L287 344 C242 344 217 358 217 400 L217 626 C217 707 177 749 100 749 L30 750 L30 750 Z " />
<glyph glyph-name="asciitilde" unicode="&#x7e;" horiz-adv-x="340" d="M90 260 C90 305 97 329 111 329 C148 329 179 251 237 251 C234 251 229 341 229 341 L237 251 C301 251 335 306 335 410 L250 410 C250 365 243 341 229 341 C229 341 161 419 103 419 C105 419 106 397 107 375 L103 420 C39 420 5 365 5 261 L90 260 L90 260 Z " />
<glyph glyph-name="nbspace" unicode="&#xa0;" horiz-adv-x="220" d="" />
<glyph glyph-name="exclamdown" unicode="&#xa1;" horiz-adv-x="225" d="M51 750 L51 625 L176 625 L176 750 L51 750 L51 750 Z M45 0 L180 0 L180 310 L130 540 L95 540 L45 310 L45 0 L45 0 Z " />
<glyph glyph-name="cent" unicode="&#xa2;" horiz-adv-x="556" d="M257 595 L257 528 C121 518 50 447 50 260 C50 73 121 2 257 -8 L257 -75 L332 -75 L332 -7 C459 5 526 83 526 220 L413 200 C413 138 385 101 332 90 L332 436 C396 423 415 375 415 293 C452 286 489 279 526 272 C526 301 524 328 521 352 L521 352 C506 457 455 516 333 526 L333 593 L257 595 L257 595 Z M258 88 C204 101 176 149 176 257 C176 369 204 418 258 432 L258 88 L258 88 Z M522 271 L525 270 L522 270 L522 271 L522 271 Z " />
<glyph glyph-name="guillemotleft" unicode="&#xab;" horiz-adv-x="565" d="M395 470 L255 260 L395 50 L495 50 L355 260 L495 470 L395 470 L395 470 Z M210 470 L70 260 L210 50 L310 50 L170 260 L310 470 L210 470 L210 470 Z " />
<glyph glyph-name="logicalnot" unicode="&#xac;" horiz-adv-x="515" d="M465 66 L465 311 L50 311 L50 216 L350 216 L350 66 L465 66 L465 66 Z " />
<glyph glyph-name="acute" unicode="&#xb4;" horiz-adv-x="340" d="M118 600 L223 600 L320 750 L170 750 L118 600 L118 600 Z " />
<glyph glyph-name="periodcentered" unicode="&#xb7;" horiz-adv-x="225" d="M50 198 L175 198 L175 323 L50 323 L50 198 L50 198 Z " />
<glyph glyph-name="guillemotright" unicode="&#xbb;" horiz-adv-x="547" d="M237 470 L377 260 L237 50 L337 50 L477 260 L337 470 L237 470 L237 470 Z M52 470 L192 260 L52 50 L152 50 L292 260 L152 470 L52 470 L52 470 Z " />
<glyph glyph-name="questiondown" unicode="&#xbf;" horiz-adv-x="550" d="M311 750 L186 750 L186 625 L311 625 L311 750 L311 750 Z M500 190 L389 210 C382 126 331 81 241 81 C162 81 120 120 120 195 C120 235 138 258 205 305 C296 369 304 388 304 540 L194 540 C194 438 188 425 124 380 C27 312 0 272 0 195 C0 61 83 -9 241 -9 C399 -9 489 60 500 190 L500 190 Z " />
<glyph glyph-name="Agrave" unicode="&#xc0;" horiz-adv-x="725" d="M316 830 L421 830 L368 980 L218 980 L316 830 L316 830 Z M276 700 L29 50 C27 45 20 30 10 0 L147 0 L162 40 C165 47 167 50 166 50 L208 162 L519 162 L579 0 L716 0 C716 0 702 39 700 45 L436 750 L297 750 C295 745 288 730 278 700 L276 700 L276 700 Z M245 260 L365 582 L484 260 L245 260 L245 260 Z " />
<glyph glyph-name="Aacute" unicode="&#xc1;" horiz-adv-x="725" d="M316 830 L421 830 L518 980 L368 980 L316 830 L316 830 Z M276 700 L29 50 C27 45 20 30 10 0 L147 0 L162 40 C165 47 167 50 166 50 L208 162 L519 162 L579 0 L716 0 C716 0 702 39 700 45 L436 750 L297 750 C295 745 288 730 278 700 L276 700 L276 700 Z M245 260 L365 582 L484 260 L245 260 L245 260 Z " />
<glyph glyph-name="Acircumflex" unicode="&#xc2;" horiz-adv-x="725" d="M368 890 C389 890 433 830 433 830 L538 830 L426 980 L310 980 L198 830 L303 830 L368 890 L368 890 Z M276 700 L29 50 C27 45 20 30 10 0 L147 0 L162 40 C165 47 167 50 166 50 L208 162 L519 162 L579 0 L716 0 C716 0 702 39 700 45 L436 750 L297 750 C295 745 288 730 278 700 L276 700 L276 700 Z M245 260 L365 582 L484 260 L245 260 L245 260 Z " />
<glyph glyph-name="Atilde" unicode="&#xc3;" horiz-adv-x="725" d="M288 830 C288 875 295 899 309 899 C346 899 377 821 435 821 C432 821 427 911 427 911 L435 821 C499 821 533 876 533 980 L448 980 C448 935 441 911 427 911 C427 911 359 989 301 989 C303 989 304 967 305 945 L301 990 C237 990 203 935 203 831 L288 830 L288 830 Z M276 701 L29 51 C27 46 20 31 10 1 L147 1 L162 41 C165 48 167 51 166 51 L208 163 L519 163 L579 1 L716 1 C716 1 702 40 700 46 L436 751 L297 751 C295 746 288 731 278 701 L276 701 L276 701 Z M245 261 L365 583 L484 261 L245 261 L245 261 Z " />
<glyph glyph-name="Adieresis" unicode="&#xc4;" horiz-adv-x="725" d="M386 830 L511 830 L511 955 L386 955 L386 830 L386 830 Z M225 830 L350 830 L350 955 L225 955 L225 830 L225 830 Z M276 700 L29 50 C27 45 20 30 10 0 L147 0 L162 40 C165 47 167 50 166 50 L208 162 L519 162 L579 0 L716 0 C716 0 702 39 700 45 L436 750 L297 750 C295 745 288 730 278 700 L276 700 L276 700 Z M245 260 L365 582 L484 260 L245 260 L245 260 Z " />
<glyph glyph-name="Aring" unicode="&#xc5;" horiz-adv-x="725" d="M340 915 C340 936 349 946 368 946 C388 946 397 936 397 915 C397 892 389 883 368 883 C348 883 340 892 340 915 L340 915 Z M283 915 C283 854 307 830 368 830 C430 830 454 854 454 915 C454 973 427 999 368 999 C310 999 283 973 283 915 L283 915 Z M276 700 L29 50 C27 45 20 30 10 0 L147 0 L162 40 C165 47 167 50 166 50 L208 162 L519 162 L579 0 L716 0 C716 0 702 39 700 45 L436 750 L297 750 C295 745 288 730 278 700 L276 700 L276 700 Z M245 260 L365 582 L484 260 L245 260 L245 260 Z " />
<glyph glyph-name="Ccedilla" unicode="&#xc7;" horiz-adv-x="722" d="M383 -104 C406 -104 418 -120 418 -149 C418 -179 405 -195 380 -195 C351 -195 337 -181 340 -154 L296 -190 C291 -229 321 -250 383 -250 C449 -250 483 -215 483 -149 C483 -84 452 -49 393 -49 C385 -49 378 -51 372 -55 L385 -10 C592 -10 702 83 702 260 L579 267 C579 154 512 95 384 95 C256 95 189 210 189 374 C189 539 256 654 384 654 C512 654 579 594 579 481 L702 488 C702 510 700 531 697 550 L697 550 C673 687 566 758 384 758 C167 758 52 600 52 374 C52 162 153 10 345 -8 L318 -101 C318 -101 323 -120 353 -121 C353 -120 353 -119 353 -118 C353 -119 353 -120 353 -120 C357 -110 366 -104 383 -104 L383 -104 Z " />
<glyph glyph-name="Egrave" unicode="&#xc8;" horiz-adv-x="640" d="M279 830 L384 830 L331 980 L181 980 L279 830 L279 830 Z M590 105 L215 105 L215 337 L555 337 L555 437 L215 437 L215 646 L575 646 L575 750 L87 750 L87 0 L590 0 L590 105 L590 105 Z " />
<glyph glyph-name="Eacute" unicode="&#xc9;" horiz-adv-x="640" d="M279 830 L384 830 L481 980 L331 980 L279 830 L279 830 Z M590 105 L215 105 L215 337 L555 337 L555 437 L215 437 L215 646 L575 646 L575 750 L87 750 L87 0 L590 0 L590 105 L590 105 Z " />
<glyph glyph-name="Ecircumflex" unicode="&#xca;" horiz-adv-x="640" d="M331 890 C352 890 396 830 396 830 L501 830 L389 980 L273 980 L161 830 L266 830 L331 890 L331 890 Z M590 105 L215 105 L215 337 L555 337 L555 437 L215 437 L215 646 L575 646 L575 750 L87 750 L87 0 L590 0 L590 105 L590 105 Z " />
<glyph glyph-name="Edieresis" unicode="&#xcb;" horiz-adv-x="640" d="M349 830 L474 830 L474 955 L349 955 L349 830 L349 830 Z M188 830 L313 830 L313 955 L188 955 L188 830 L188 830 Z M590 105 L215 105 L215 337 L555 337 L555 437 L215 437 L215 646 L575 646 L575 750 L87 750 L87 0 L590 0 L590 105 L590 105 Z " />
<glyph glyph-name="Igrave" unicode="&#xcc;" horiz-adv-x="301" d="M100 830 L205 830 L152 980 L2 980 L100 830 L100 830 Z M216 0 L216 750 L88 750 L88 0 L216 0 L216 0 Z " />
<glyph glyph-name="Iacute" unicode="&#xcd;" horiz-adv-x="301" d="M100 830 L205 830 L302 980 L152 980 L100 830 L100 830 Z M216 0 L216 750 L88 750 L88 0 L216 0 L216 0 Z " />
<glyph glyph-name="Icircumflex" unicode="&#xce;" horiz-adv-x="301" d="M152 890 C173 890 217 830 217 830 L322 830 L210 980 L94 980 L-18 830 L87 830 L152 890 L152 890 Z M216 0 L216 750 L88 750 L88 0 L216 0 L216 0 Z " />
<glyph glyph-name="Idieresis" unicode="&#xcf;" horiz-adv-x="301" d="M170 830 L295 830 L295 955 L170 955 L170 830 L170 830 Z M9 830 L134 830 L134 955 L9 955 L9 830 L9 830 Z M216 0 L216 750 L88 750 L88 0 L216 0 L216 0 Z " />
<glyph glyph-name="Ntilde" unicode="&#xd1;" horiz-adv-x="748" d="M295 830 C295 875 302 899 316 899 C353 899 384 821 442 821 C439 821 434 911 434 911 L442 821 C506 821 540 876 540 980 L455 980 C455 935 448 911 434 911 C434 911 366 989 308 989 C310 989 311 967 312 945 L308 990 C244 990 210 935 210 831 L295 830 L295 830 Z M535 173 L230 751 L87 751 L87 1 L215 1 L215 509 L484 1 L663 1 L663 751 L535 751 L535 173 L535 173 Z " />
<glyph glyph-name="Ograve" unicode="&#xd2;" horiz-adv-x="814" d="M356 830 L461 830 L408 980 L258 980 L356 830 L356 830 Z M194 375 C194 549 275 655 408 655 C541 655 622 549 622 375 C622 192 548 96 408 96 C268 96 194 192 194 375 L194 375 Z M57 375 C57 123 178 -9 408 -9 C638 -9 759 123 759 375 C759 614 626 759 408 759 C190 759 57 614 57 375 L57 375 Z " />
<glyph glyph-name="Oacute" unicode="&#xd3;" horiz-adv-x="814" d="M356 830 L461 830 L558 980 L408 980 L356 830 L356 830 Z M194 375 C194 549 275 655 408 655 C541 655 622 549 622 375 C622 192 548 96 408 96 C268 96 194 192 194 375 L194 375 Z M57 375 C57 123 178 -9 408 -9 C638 -9 759 123 759 375 C759 614 626 759 408 759 C190 759 57 614 57 375 L57 375 Z " />
<glyph glyph-name="Ocircumflex" unicode="&#xd4;" horiz-adv-x="814" d="M408 890 C429 890 473 830 473 830 L578 830 L466 980 L350 980 L238 830 L343 830 L408 890 L408 890 Z M194 375 C194 549 275 655 408 655 C541 655 622 549 622 375 C622 192 548 96 408 96 C268 96 194 192 194 375 L194 375 Z M57 375 C57 123 178 -9 408 -9 C638 -9 759 123 759 375 C759 614 626 759 408 759 C190 759 57 614 57 375 L57 375 Z " />
<glyph glyph-name="Otilde" unicode="&#xd5;" horiz-adv-x="814" d="M328 830 C328 875 335 899 349 899 C386 899 417 821 475 821 C472 821 467 911 467 911 L475 821 C539 821 573 876 573 980 L488 980 C488 935 481 911 467 911 C467 911 399 989 341 989 C343 989 344 967 345 945 L341 990 C277 990 243 935 243 831 L328 830 L328 830 Z M194 376 C194 550 275 656 408 656 C541 656 622 550 622 376 C622 193 548 97 408 97 C268 97 194 193 194 376 L194 376 Z M57 376 C57 124 178 -8 408 -8 C638 -8 759 124 759 376 C759 615 626 760 408 760 C190 760 57 615 57 376 L57 376 Z " />
<glyph glyph-name="Odieresis" unicode="&#xd6;" horiz-adv-x="814" d="M426 830 L551 830 L551 955 L426 955 L426 830 L426 830 Z M265 830 L390 830 L390 955 L265 955 L265 830 L265 830 Z M194 375 C194 549 275 655 408 655 C541 655 622 549 622 375 C622 192 548 96 408 96 C268 96 194 192 194 375 L194 375 Z M57 375 C57 123 178 -9 408 -9 C638 -9 759 123 759 375 C759 614 626 759 408 759 C190 759 57 614 57 375 L57 375 Z " />
<glyph glyph-name="Oslash" unicode="&#xd8;" horiz-adv-x="814" d="M57 375 C57 252 86 158 142 94 L58 -9 L129 -9 L183 56 C240 13 316 -9 410 -9 C640 -9 761 123 761 375 C761 491 730 585 673 651 L762 759 L691 759 L633 689 C575 734 500 759 410 759 C192 759 59 614 59 375 L57 375 L57 375 Z M555 595 L230 200 C207 245 195 304 195 376 C195 550 276 656 409 656 C469 656 518 635 554 596 L555 595 L555 595 Z M587 549 C611 504 624 446 624 377 C624 194 550 98 410 98 C348 98 299 117 264 154 L587 549 L587 549 Z " />
<glyph glyph-name="Ugrave" unicode="&#xd9;" horiz-adv-x="731" d="M313 821 L418 821 L366 971 L216 971 L313 821 L313 821 Z M80 289 C80 74 160 -9 366 -9 C571 -9 651 74 651 289 L651 750 L523 750 L523 312 C523 166 479 110 366 110 C252 110 208 166 208 312 L208 750 L80 750 L80 289 L80 289 Z " />
<glyph glyph-name="Uacute" unicode="&#xda;" horiz-adv-x="731" d="M313 821 L418 821 L516 971 L366 971 L313 821 L313 821 Z M80 289 C80 74 160 -9 366 -9 C571 -9 651 74 651 289 L651 750 L523 750 L523 312 C523 166 479 110 366 110 C252 110 208 166 208 312 L208 750 L80 750 L80 289 L80 289 Z " />
<glyph glyph-name="Ucircumflex" unicode="&#xdb;" horiz-adv-x="731" d="M366 881 C387 881 431 821 431 821 L536 821 L424 971 L308 971 L196 821 L301 821 L366 881 L366 881 Z M80 289 C80 74 160 -9 366 -9 C571 -9 651 74 651 289 L651 750 L523 750 L523 312 C523 166 479 110 366 110 C252 110 208 166 208 312 L208 750 L80 750 L80 289 L80 289 Z " />
<glyph glyph-name="Udieresis" unicode="&#xdc;" horiz-adv-x="731" d="M383 821 L508 821 L508 946 L383 946 L383 821 L383 821 Z M223 821 L348 821 L348 946 L223 946 L223 821 L223 821 Z M80 289 C80 74 160 -9 366 -9 C571 -9 651 74 651 289 L651 750 L523 750 L523 312 C523 166 479 110 366 110 C252 110 208 166 208 312 L208 750 L80 750 L80 289 L80 289 Z " />
<glyph glyph-name="Yacute" unicode="&#xdd;" horiz-adv-x="627" d="M265 830 L370 830 L467 980 L317 980 L265 830 L265 830 Z M145 750 L17 750 C23 740 43 705 46 700 L254 330 L254 0 L382 0 L382 330 L590 700 C591 700 596 709 619 750 L491 750 C487 743 463 700 463 700 L319 439 L175 700 C175 700 169 710 147 750 L145 750 L145 750 Z " />
<glyph glyph-name="Thorn" unicode="&#xde;" horiz-adv-x="624" d="M215 0 L215 150 L326 150 C515 150 589 213 589 375 C589 537 515 600 326 600 L215 600 L215 750 L87 750 L87 0 L215 0 L215 0 Z M215 250 L215 500 L321 500 C422 500 461 465 461 375 C461 285 425 250 331 250 L215 250 L215 250 Z " />
<glyph glyph-name="agrave" unicode="&#xe0;" horiz-adv-x="550" d="M213 600 L318 600 L265 750 L115 750 L213 600 L213 600 Z M54 297 L162 316 C162 393 198 434 265 434 C327 434 360 424 360 385 C360 324 303 304 194 286 C93 270 40 220 40 142 C40 43 74 -9 200 -9 C275 -9 329 2 361 47 C366 -3 392 0 520 0 L520 85 C473 85 475 84 475 110 L475 336 C475 488 403 529 265 529 C127 529 54 449 54 297 L54 297 Z M360 242 L360 177 C353 87 311 70 235 70 C172 70 155 96 155 146 C155 178 192 202 262 213 C302 220 335 228 360 242 L360 242 Z " />
<glyph glyph-name="aacute" unicode="&#xe1;" horiz-adv-x="550" d="M213 600 L318 600 L415 750 L265 750 L213 600 L213 600 Z M54 297 L162 316 C162 393 198 434 265 434 C327 434 360 424 360 385 C360 324 303 304 194 286 C93 270 40 220 40 142 C40 43 74 -9 200 -9 C275 -9 329 2 361 47 C366 -3 392 0 520 0 L520 85 C473 85 475 84 475 110 L475 336 C475 488 403 529 265 529 C127 529 54 449 54 297 L54 297 Z M360 242 L360 177 C353 87 311 70 235 70 C172 70 155 96 155 146 C155 178 192 202 262 213 C302 220 335 228 360 242 L360 242 Z " />
<glyph glyph-name="acircumflex" unicode="&#xe2;" horiz-adv-x="550" d="M265 660 C286 660 330 600 330 600 L435 600 L323 750 L207 750 L95 600 L200 600 L265 660 L265 660 Z M54 297 L162 316 C162 393 198 434 265 434 C327 434 360 424 360 385 C360 324 303 304 194 286 C93 270 40 220 40 142 C40 43 74 -9 200 -9 C275 -9 329 2 361 47 C366 -3 392 0 520 0 L520 85 C473 85 475 84 475 110 L475 336 C475 488 403 529 265 529 C127 529 54 449 54 297 L54 297 Z M360 242 L360 177 C353 87 311 70 235 70 C172 70 155 96 155 146 C155 178 192 202 262 213 C302 220 335 228 360 242 L360 242 Z " />
<glyph glyph-name="atilde" unicode="&#xe3;" horiz-adv-x="550" d="M185 600 C185 645 192 669 206 669 C243 669 274 591 332 591 C329 591 324 681 324 681 L332 591 C396 591 430 646 430 750 L345 750 C345 705 338 681 324 681 C324 681 256 759 198 759 C200 759 201 737 202 715 L198 760 C134 760 100 705 100 601 L185 600 L185 600 Z M54 298 L162 317 C162 394 198 435 265 435 C327 435 360 425 360 386 C360 325 303 305 194 287 C93 271 40 221 40 143 C40 44 74 -8 200 -8 C275 -8 329 3 361 48 C366 -2 392 1 520 1 L520 86 C473 86 475 85 475 111 L475 337 C475 489 403 530 265 530 C127 530 54 450 54 298 L54 298 Z M360 243 L360 178 C353 88 311 71 235 71 C172 71 155 97 155 147 C155 179 192 203 262 214 C302 221 335 229 360 243 L360 243 Z " />
<glyph glyph-name="adieresis" unicode="&#xe4;" horiz-adv-x="550" d="M313 600 L438 600 L438 725 L313 725 L313 600 L313 600 Z M93 600 L218 600 L218 725 L93 725 L93 600 L93 600 Z M54 297 L162 316 C162 393 198 434 265 434 C327 434 360 424 360 385 C360 324 303 304 194 286 C93 270 40 220 40 142 C40 43 74 -9 200 -9 C275 -9 329 2 361 47 C366 -3 392 0 520 0 L520 85 C473 85 475 84 475 110 L475 336 C475 488 403 529 265 529 C127 529 54 449 54 297 L54 297 Z M360 242 L360 177 C353 87 311 70 235 70 C172 70 155 96 155 146 C155 178 192 202 262 213 C302 220 335 228 360 242 L360 242 Z " />
<glyph glyph-name="aring" unicode="&#xe5;" horiz-adv-x="550" d="M237 685 C237 706 246 716 265 716 C285 716 294 706 294 685 C294 662 286 653 265 653 C245 653 237 662 237 685 L237 685 Z M180 685 C180 624 204 600 265 600 C327 600 351 624 351 685 C351 743 324 769 265 769 C207 769 180 743 180 685 L180 685 Z M54 297 L162 316 C162 393 198 434 265 434 C327 434 360 424 360 385 C360 324 303 304 194 286 C93 270 40 220 40 142 C40 43 74 -9 200 -9 C275 -9 329 2 361 47 C366 -3 392 0 520 0 L520 85 C473 85 475 84 475 110 L475 336 C475 488 403 529 265 529 C127 529 54 449 54 297 L54 297 Z M360 242 L360 177 C353 87 311 70 235 70 C172 70 155 96 155 146 C155 178 192 202 262 213 C302 220 335 228 360 242 L360 242 Z " />
<glyph glyph-name="ccedilla" unicode="&#xe7;" horiz-adv-x="556" d="M294 -104 C317 -104 329 -120 329 -149 C329 -179 316 -195 291 -195 C262 -195 248 -181 251 -154 L207 -190 C202 -229 232 -250 294 -250 C360 -250 394 -215 394 -149 C394 -84 363 -49 304 -49 C296 -49 289 -51 283 -54 L296 -9 C446 -8 525 71 525 220 L412 200 C412 125 371 86 293 86 C215 86 174 129 174 260 C174 395 215 439 293 439 C388 439 414 389 414 293 C451 286 488 279 525 272 C525 301 523 328 520 352 L520 352 C503 467 443 527 293 527 C133 527 49 461 49 258 C49 71 120 0 256 -10 L228 -102 C228 -102 233 -121 263 -122 C263 -121 263 -120 263 -119 C263 -120 263 -121 263 -121 C267 -111 276 -105 293 -105 L294 -104 L294 -104 Z M520 273 L523 272 L520 272 L520 273 L520 273 Z " />
<glyph glyph-name="egrave" unicode="&#xe8;" horiz-adv-x="562" d="M247 600 L352 600 L299 750 L149 750 L247 600 L247 600 Z M419 200 C419 125 375 86 291 86 C217 86 177 127 175 250 L548 250 C548 433 495 529 299 529 C136 529 50 463 50 260 C50 57 133 -9 291 -9 C449 -9 532 70 532 220 L419 200 L419 200 Z M427 330 L180 330 C194 411 235 439 300 439 C379 439 415 402 428 330 L427 330 L427 330 Z " />
<glyph glyph-name="eacute" unicode="&#xe9;" horiz-adv-x="562" d="M247 600 L352 600 L449 750 L299 750 L247 600 L247 600 Z M419 200 C419 125 375 86 291 86 C217 86 177 127 175 250 L548 250 C548 433 495 529 299 529 C136 529 50 463 50 260 C50 57 133 -9 291 -9 C449 -9 532 70 532 220 L419 200 L419 200 Z M427 330 L180 330 C194 411 235 439 300 439 C379 439 415 402 428 330 L427 330 L427 330 Z " />
<glyph glyph-name="ecircumflex" unicode="&#xea;" horiz-adv-x="562" d="M299 660 C320 660 364 600 364 600 L469 600 L357 750 L241 750 L129 600 L234 600 L299 660 L299 660 Z M419 200 C419 125 375 86 291 86 C217 86 177 127 175 250 L548 250 C548 433 495 529 299 529 C136 529 50 463 50 260 C50 57 133 -9 291 -9 C449 -9 532 70 532 220 L419 200 L419 200 Z M427 330 L180 330 C194 411 235 439 300 439 C379 439 415 402 428 330 L427 330 L427 330 Z " />
<glyph glyph-name="edieresis" unicode="&#xeb;" horiz-adv-x="562" d="M317 600 L442 600 L442 725 L317 725 L317 600 L317 600 Z M156 600 L281 600 L281 725 L156 725 L156 600 L156 600 Z M419 200 C419 125 375 86 291 86 C217 86 177 127 175 250 L548 250 C548 433 495 529 299 529 C136 529 50 463 50 260 C50 57 133 -9 291 -9 C449 -9 532 70 532 220 L419 200 L419 200 Z M427 330 L180 330 C194 411 235 439 300 439 C379 439 415 402 428 330 L427 330 L427 330 Z " />
<glyph glyph-name="igrave" unicode="&#xec;" horiz-adv-x="295" d="M115 600 L220 600 L167 750 L17 750 L115 600 L115 600 Z M110 0 L225 0 L225 520 L110 520 L110 0 L110 0 Z " />
<glyph glyph-name="iacute" unicode="&#xed;" horiz-adv-x="295" d="M115 600 L220 600 L317 750 L167 750 L115 600 L115 600 Z M110 0 L225 0 L225 520 L110 520 L110 0 L110 0 Z " />
<glyph glyph-name="icircumflex" unicode="&#xee;" horiz-adv-x="295" d="M167 660 C188 660 232 600 232 600 L337 600 L225 750 L109 750 L-3 600 L102 600 L167 660 L167 660 Z M110 0 L225 0 L225 520 L110 520 L110 0 L110 0 Z " />
<glyph glyph-name="idieresis" unicode="&#xef;" horiz-adv-x="295" d="M215 600 L340 600 L340 725 L215 725 L215 600 L215 600 Z M-5 600 L120 600 L120 725 L-5 725 L-5 600 L-5 600 Z M110 0 L225 0 L225 520 L110 520 L110 0 L110 0 Z " />
<glyph glyph-name="ntilde" unicode="&#xf1;" horiz-adv-x="550" d="M198 600 C198 645 205 669 219 669 C256 669 287 591 345 591 C342 591 337 681 337 681 L345 591 C409 591 443 646 443 750 L358 750 C358 705 351 681 337 681 C337 681 269 759 211 759 C213 759 214 737 215 715 L211 760 C147 760 113 705 113 601 L198 600 L198 600 Z M485 1 L485 316 C485 467 433 526 333 526 C266 526 216 504 185 462 L185 521 L70 521 L70 1 L185 1 L185 321 C185 387 221 421 289 421 C342 421 370 392 370 316 L370 1 L485 1 L485 1 Z " />
<glyph glyph-name="ograve" unicode="&#xf2;" horiz-adv-x="590" d="M243 600 L348 600 L295 750 L145 750 L243 600 L243 600 Z M175 260 C175 399 216 444 295 444 C385 444 415 381 415 260 C415 121 374 76 295 76 C205 76 175 139 175 260 L175 260 Z M50 260 C50 84 110 -9 295 -9 C455 -9 540 57 540 260 C540 436 480 529 295 529 C135 529 50 463 50 260 L50 260 Z " />
<glyph glyph-name="oacute" unicode="&#xf3;" horiz-adv-x="590" d="M243 600 L348 600 L445 750 L295 750 L243 600 L243 600 Z M175 260 C175 399 216 444 295 444 C385 444 415 381 415 260 C415 121 374 76 295 76 C205 76 175 139 175 260 L175 260 Z M50 260 C50 84 110 -9 295 -9 C455 -9 540 57 540 260 C540 436 480 529 295 529 C135 529 50 463 50 260 L50 260 Z " />
<glyph glyph-name="ocircumflex" unicode="&#xf4;" horiz-adv-x="590" d="M295 660 C316 660 360 600 360 600 L465 600 L353 750 L237 750 L125 600 L230 600 L295 660 L295 660 Z M175 260 C175 399 216 444 295 444 C385 444 415 381 415 260 C415 121 374 76 295 76 C205 76 175 139 175 260 L175 260 Z M50 260 C50 84 110 -9 295 -9 C455 -9 540 57 540 260 C540 436 480 529 295 529 C135 529 50 463 50 260 L50 260 Z " />
<glyph glyph-name="otilde" unicode="&#xf5;" horiz-adv-x="590" d="M215 600 C215 645 222 669 236 669 C273 669 304 591 362 591 C359 591 354 681 354 681 L362 591 C426 591 460 646 460 750 L375 750 C375 705 368 681 354 681 C354 681 286 759 228 759 C230 759 231 737 232 715 L228 760 C164 760 130 705 130 601 L215 600 L215 600 Z M175 261 C175 400 216 445 295 445 C385 445 415 382 415 261 C415 122 374 77 295 77 C205 77 175 140 175 261 L175 261 Z M50 261 C50 85 110 -8 295 -8 C455 -8 540 58 540 261 C540 437 480 530 295 530 C135 530 50 464 50 261 L50 261 Z " />
<glyph glyph-name="odieresis" unicode="&#xf6;" horiz-adv-x="590" d="M313 600 L438 600 L438 725 L313 725 L313 600 L313 600 Z M152 600 L277 600 L277 725 L152 725 L152 600 L152 600 Z M175 260 C175 399 216 444 295 444 C385 444 415 381 415 260 C415 121 374 76 295 76 C205 76 175 139 175 260 L175 260 Z M50 260 C50 84 110 -9 295 -9 C455 -9 540 57 540 260 C540 436 480 529 295 529 C135 529 50 463 50 260 L50 260 Z " />
<glyph glyph-name="oslash" unicode="&#xf8;" horiz-adv-x="590" d="M50 260 C50 171 65 103 104 58 L49 -9 L99 -9 L132 32 C170 5 223 -9 294 -9 C454 -9 539 57 539 260 C539 349 524 417 485 462 L540 529 L490 529 L457 488 C419 515 366 529 295 529 C135 529 50 463 50 260 L50 260 Z M386 402 L186 158 C178 185 175 219 175 260 C175 399 216 444 295 444 C338 444 367 430 386 402 L386 402 Z M404 363 C412 336 415 302 415 261 C415 122 374 77 295 77 C252 77 223 91 204 119 L404 363 L404 363 Z " />
<glyph glyph-name="ugrave" unicode="&#xf9;" horiz-adv-x="550" d="M220 600 L325 600 L273 750 L123 750 L220 600 L220 600 Z M480 0 L480 520 L365 520 L365 210 C365 135 330 95 263 95 C192 95 180 124 180 200 L180 520 L65 520 L65 200 C65 49 89 -9 227 -9 C291 -9 337 17 365 67 L365 1 L480 0 L480 0 Z " />
<glyph glyph-name="uacute" unicode="&#xfa;" horiz-adv-x="550" d="M220 600 L325 600 L423 750 L273 750 L220 600 L220 600 Z M480 0 L480 520 L365 520 L365 210 C365 135 330 95 263 95 C192 95 180 124 180 200 L180 520 L65 520 L65 200 C65 49 89 -9 227 -9 C291 -9 337 17 365 67 L365 1 L480 0 L480 0 Z " />
<glyph glyph-name="ucircumflex" unicode="&#xfb;" horiz-adv-x="550" d="M273 660 C294 660 338 600 338 600 L443 600 L331 750 L215 750 L103 600 L208 600 L273 660 L273 660 Z M480 0 L480 520 L365 520 L365 210 C365 135 330 95 263 95 C192 95 180 124 180 200 L180 520 L65 520 L65 200 C65 49 89 -9 227 -9 C291 -9 337 17 365 67 L365 1 L480 0 L480 0 Z " />
<glyph glyph-name="udieresis" unicode="&#xfc;" horiz-adv-x="550" d="M290 600 L415 600 L415 725 L290 725 L290 600 L290 600 Z M130 600 L255 600 L255 725 L130 725 L130 600 L130 600 Z M480 0 L480 520 L365 520 L365 210 C365 135 330 95 263 95 C192 95 180 124 180 200 L180 520 L65 520 L65 200 C65 49 89 -9 227 -9 C291 -9 337 17 365 67 L365 1 L480 0 L480 0 Z " />
<glyph glyph-name="yacute" unicode="&#xfd;" horiz-adv-x="490" d="M193 600 L298 600 L395 750 L245 750 L193 600 L193 600 Z M45 -200 L95 -200 C217 -200 244 -183 276 -84 L466 480 C469 488 480 520 480 520 L350 520 L339 484 C336 475 334 471 335 471 L243 155 L153 474 C152 477 150 484 147 494 L139 521 L9 521 C9 521 19 491 22 482 L191 -21 L186 -40 C169 -91 156 -100 94 -100 L44 -100 L45 -200 L45 -200 Z " />
<glyph glyph-name="thorn" unicode="&#xfe;" horiz-adv-x="599" d="M128 750 L70 750 L70 -250 L185 -250 L185 54 C220 9 273 -9 343 -9 C479 -9 550 84 550 260 C550 436 479 529 343 529 C273 529 220 511 185 466 L185 750 L128 750 L128 750 Z M185 260 C185 391 226 434 304 434 C383 434 424 374 424 260 C424 146 383 86 304 86 C226 86 185 129 185 260 L185 260 Z " />
<glyph glyph-name="ydieresis" unicode="&#xff;" horiz-adv-x="490" d="M263 600 L388 600 L388 725 L263 725 L263 600 L263 600 Z M102 600 L227 600 L227 725 L102 725 L102 600 L102 600 Z M45 -200 L95 -200 C217 -200 244 -183 276 -84 L466 480 C469 488 480 520 480 520 L350 520 L339 484 C336 475 334 471 335 471 L243 155 L153 474 C152 477 150 484 147 494 L139 521 L9 521 C9 521 19 491 22 482 L191 -21 L186 -40 C169 -91 156 -100 94 -100 L44 -100 L45 -200 L45 -200 Z " />
<glyph glyph-name="Amacron" unicode="&#x100;" horiz-adv-x="725" d="M228 830 L508 830 L508 910 L228 910 L228 830 L228 830 Z M276 700 L29 50 C27 45 20 30 10 0 L147 0 L162 40 C165 47 167 50 166 50 L208 162 L519 162 L579 0 L716 0 C716 0 702 39 700 45 L436 750 L297 750 C295 745 288 730 278 700 L276 700 L276 700 Z M245 260 L365 582 L484 260 L245 260 L245 260 Z " />
<glyph glyph-name="amacron" unicode="&#x101;" horiz-adv-x="550" d="M125 600 L405 600 L405 680 L125 680 L125 600 L125 600 Z M54 297 L162 316 C162 393 198 434 265 434 C327 434 360 424 360 385 C360 324 303 304 194 286 C93 270 40 220 40 142 C40 43 74 -9 200 -9 C275 -9 329 2 361 47 C366 -3 392 0 520 0 L520 85 C473 85 475 84 475 110 L475 336 C475 488 403 529 265 529 C127 529 54 449 54 297 L54 297 Z M360 242 L360 177 C353 87 311 70 235 70 C172 70 155 96 155 146 C155 178 192 202 262 213 C302 220 335 228 360 242 L360 242 Z " />
<glyph glyph-name="Abreve" unicode="&#x102;" horiz-adv-x="725" d="M217 965 C217 871 269 821 368 821 C467 821 519 871 519 965 L434 965 C434 923 411 901 368 901 C325 901 302 923 302 965 L217 965 L217 965 Z M276 700 L29 50 C27 45 20 30 10 0 L147 0 L162 40 C165 47 167 50 166 50 L208 162 L519 162 L579 0 L716 0 C716 0 702 39 700 45 L436 750 L297 750 C295 745 288 730 278 700 L276 700 L276 700 Z M245 260 L365 582 L484 260 L245 260 L245 260 Z " />
<glyph glyph-name="abreve" unicode="&#x103;" horiz-adv-x="550" d="M114 735 C114 641 166 591 265 591 C364 591 416 641 416 735 L331 735 C331 693 308 671 265 671 C222 671 199 693 199 735 L114 735 L114 735 Z M54 297 L162 316 C162 393 198 434 265 434 C327 434 360 424 360 385 C360 324 303 304 194 286 C93 270 40 220 40 142 C40 43 74 -9 200 -9 C275 -9 329 2 361 47 C366 -3 392 0 520 0 L520 85 C473 85 475 84 475 110 L475 336 C475 488 403 529 265 529 C127 529 54 449 54 297 L54 297 Z M360 242 L360 177 C353 87 311 70 235 70 C172 70 155 96 155 146 C155 178 192 202 262 213 C302 220 335 228 360 242 L360 242 Z " />
<glyph glyph-name="Aogonek" unicode="&#x104;" horiz-adv-x="725" d="M276 700 L29 50 C27 45 20 30 10 0 L147 0 L162 40 C165 47 167 50 166 50 L208 162 L519 162 L579 0 L654 0 C626 -28 598 -66 598 -98 C598 -174 645 -214 733 -214 C778 -214 807 -207 817 -195 L806 -132 C799 -140 776 -144 739 -144 C689 -144 662 -124 662 -87 C662 -50 698 -10 716 0 C716 0 702 39 700 45 L436 750 L297 750 C295 745 288 730 278 700 L276 700 L276 700 Z M245 260 L365 582 L484 260 L245 260 L245 260 Z " />
<glyph glyph-name="aogonek" unicode="&#x105;" horiz-adv-x="550" d="M54 297 L162 316 C162 393 198 434 265 434 C327 434 360 424 360 385 C360 324 303 304 194 286 C93 270 40 220 40 142 C40 43 74 -9 200 -9 C275 -9 329 2 361 47 C365 5 384 0 466 0 C433 -30 402 -68 402 -96 C402 -174 449 -215 537 -215 C582 -215 611 -208 621 -196 L610 -133 C603 -141 580 -145 543 -145 C493 -145 466 -124 466 -85 C466 -50 502 -11 520 -1 L520 84 C473 84 475 83 475 109 L475 335 C475 487 403 528 265 528 C127 528 54 448 54 296 L54 297 L54 297 Z M360 241 L360 176 C353 86 311 69 235 69 C172 69 155 95 155 145 C155 177 192 201 262 212 C302 219 335 227 360 241 L360 241 Z " />
<glyph glyph-name="Cacute" unicode="&#x106;" horiz-adv-x="722" d="M325 830 L430 830 L527 980 L377 980 L325 830 L325 830 Z M579 268 C579 155 512 96 384 96 C256 96 189 211 189 375 C189 540 256 655 384 655 C512 655 579 595 579 482 L702 489 C702 511 700 532 697 551 L697 551 C673 688 566 759 384 759 C167 759 52 601 52 375 C52 149 167 -9 384 -9 C592 -9 702 84 702 261 L579 268 L579 268 Z " />
<glyph glyph-name="cacute" unicode="&#x107;" horiz-adv-x="556" d="M242 600 L347 600 L444 750 L294 750 L242 600 L242 600 Z M413 200 C413 125 372 86 294 86 C216 86 175 129 175 260 C175 395 216 439 294 439 C389 439 415 389 415 293 C452 286 489 279 526 272 C526 301 524 328 521 352 L521 352 C504 467 444 527 294 527 C134 527 50 461 50 258 C50 55 134 -11 294 -11 C446 -11 526 68 526 218 L413 200 L413 200 Z M521 272 L524 271 L521 271 L521 272 L521 272 Z " />
<glyph glyph-name="Ccircumflex" unicode="&#x108;" horiz-adv-x="722" d="M377 890 C398 890 442 830 442 830 L547 830 L435 980 L319 980 L207 830 L312 830 L377 890 L377 890 Z M579 268 C579 155 512 96 384 96 C256 96 189 211 189 375 C189 540 256 655 384 655 C512 655 579 595 579 482 L702 489 C702 511 700 532 697 551 L697 551 C673 688 566 759 384 759 C167 759 52 601 52 375 C52 149 167 -9 384 -9 C592 -9 702 84 702 261 L579 268 L579 268 Z " />
<glyph glyph-name="Cdot" unicode="&#x10a;" horiz-adv-x="722" d="M315 830 L440 830 L440 955 L315 955 L315 830 L315 830 Z M579 268 C579 155 512 96 384 96 C256 96 189 211 189 375 C189 540 256 655 384 655 C512 655 579 595 579 482 L702 489 C702 511 700 532 697 551 L697 551 C673 688 566 759 384 759 C167 759 52 601 52 375 C52 149 167 -9 384 -9 C592 -9 702 84 702 261 L579 268 L579 268 Z " />
<glyph glyph-name="cdot" unicode="&#x10b;" horiz-adv-x="556" d="M232 600 L357 600 L357 725 L232 725 L232 600 L232 600 Z M413 200 C413 125 372 86 294 86 C216 86 175 129 175 260 C175 395 216 439 294 439 C389 439 415 389 415 293 C452 286 489 279 526 272 C526 301 524 328 521 352 L521 352 C504 467 444 527 294 527 C134 527 50 461 50 258 C50 55 134 -11 294 -11 C446 -11 526 68 526 218 L413 200 L413 200 Z M521 272 L524 271 L521 271 L521 272 L521 272 Z " />
<glyph glyph-name="Ccaron" unicode="&#x10c;" horiz-adv-x="722" d="M377 920 L312 980 L207 980 L319 830 L435 830 L547 980 L442 980 C442 980 398 920 377 920 L377 920 Z M579 268 C579 155 512 96 384 96 C256 96 189 211 189 375 C189 540 256 655 384 655 C512 655 579 595 579 482 L702 489 C702 511 700 532 697 551 L697 551 C673 688 566 759 384 759 C167 759 52 601 52 375 C52 149 167 -9 384 -9 C592 -9 702 84 702 261 L579 268 L579 268 Z " />
<glyph glyph-name="ccaron" unicode="&#x10d;" horiz-adv-x="556" d="M294 690 L229 750 L124 750 L236 600 L352 600 L464 750 L359 750 C359 750 315 690 294 690 L294 690 Z M413 200 C413 125 372 86 294 86 C216 86 175 129 175 260 C175 395 216 439 294 439 C389 439 415 389 415 293 C452 286 489 279 526 272 C526 301 524 328 521 352 L521 352 C504 467 444 527 294 527 C134 527 50 461 50 258 C50 55 134 -11 294 -11 C446 -11 526 68 526 218 L413 200 L413 200 Z M521 272 L524 271 L521 271 L521 272 L521 272 Z " />
<glyph glyph-name="Dcaron" unicode="&#x10e;" horiz-adv-x="765" d="M330 920 L265 980 L160 980 L272 830 L388 830 L500 980 L395 980 C395 980 351 920 330 920 L330 920 Z M350 0 C616 0 710 97 710 375 C710 645 601 750 320 750 L87 750 L87 0 L350 0 L350 0 Z M215 100 L215 650 L325 650 C504 650 573 573 573 375 C573 171 513 99 341 99 C300 99 256 100 215 100 L215 100 Z " />
<glyph glyph-name="dcaron" unicode="&#x10f;" horiz-adv-x="601" d="M581 759 L581 609 L666 609 L706 759 L581 759 L581 759 Z M175 260 C175 374 217 434 296 434 C375 434 416 374 416 260 C416 146 375 86 296 86 C217 86 175 146 175 260 L175 260 Z M50 260 C50 84 122 -9 258 -9 C328 -9 381 16 416 64 L416 1 L531 1 L531 751 L416 751 L416 458 C381 506 328 531 258 531 C122 531 50 438 50 262 L50 260 L50 260 Z " />
<glyph glyph-name="Dcroat" unicode="&#x110;" horiz-adv-x="765" d="M7 335 L87 335 L87 0 L350 0 C616 0 710 97 710 375 C710 645 601 750 320 750 L87 750 L87 415 L7 415 L7 335 L7 335 Z M215 100 L215 335 L330 335 L330 415 L215 415 L215 650 L325 650 C504 650 573 573 573 375 C573 171 513 99 341 99 C300 99 256 100 215 100 L215 100 Z " />
<glyph glyph-name="dcroat" unicode="&#x111;" horiz-adv-x="601" d="M258 600 L416 600 L416 457 C381 505 328 530 258 530 C122 530 50 437 50 261 C50 85 122 -8 258 -8 C328 -8 381 17 416 65 L416 2 L531 2 L531 602 L644 602 L644 682 L531 682 L531 752 L416 752 L416 682 L258 682 L258 600 L258 600 Z M175 262 C175 376 217 436 296 436 C375 436 416 376 416 262 C416 148 375 88 296 88 C217 88 175 148 175 262 L175 262 Z " />
<glyph glyph-name="Emacron" unicode="&#x112;" horiz-adv-x="640" d="M191 830 L471 830 L471 910 L191 910 L191 830 L191 830 Z M590 105 L215 105 L215 337 L555 337 L555 437 L215 437 L215 646 L575 646 L575 750 L87 750 L87 0 L590 0 L590 105 L590 105 Z " />
<glyph glyph-name="emacron" unicode="&#x113;" horiz-adv-x="562" d="M159 600 L439 600 L439 680 L159 680 L159 600 L159 600 Z M419 200 C419 125 375 86 291 86 C217 86 177 127 175 250 L548 250 C548 433 495 529 299 529 C136 529 50 463 50 260 C50 57 133 -9 291 -9 C449 -9 532 70 532 220 L419 200 L419 200 Z M427 330 L180 330 C194 411 235 439 300 439 C379 439 415 402 428 330 L427 330 L427 330 Z " />
<glyph glyph-name="Ebreve" unicode="&#x114;" horiz-adv-x="640" d="M180 965 C180 871 232 821 331 821 C430 821 482 871 482 965 L397 965 C397 923 374 901 331 901 C288 901 265 923 265 965 L180 965 L180 965 Z M590 105 L215 105 L215 337 L555 337 L555 437 L215 437 L215 646 L575 646 L575 750 L87 750 L87 0 L590 0 L590 105 L590 105 Z " />
<glyph glyph-name="ebreve" unicode="&#x115;" horiz-adv-x="562" d="M148 735 C148 641 200 591 299 591 C398 591 450 641 450 735 L365 735 C365 693 342 671 299 671 C256 671 233 693 233 735 L148 735 L148 735 Z M419 200 C419 125 375 86 291 86 C217 86 177 127 175 250 L548 250 C548 433 495 529 299 529 C136 529 50 463 50 260 C50 57 133 -9 291 -9 C449 -9 532 70 532 220 L419 200 L419 200 Z M427 330 L180 330 C194 411 235 439 300 439 C379 439 415 402 428 330 L427 330 L427 330 Z " />
<glyph glyph-name="Edot" unicode="&#x116;" horiz-adv-x="640" d="M269 830 L394 830 L394 955 L269 955 L269 830 L269 830 Z M590 105 L215 105 L215 337 L555 337 L555 437 L215 437 L215 646 L575 646 L575 750 L87 750 L87 0 L590 0 L590 105 L590 105 Z " />
<glyph glyph-name="edot" unicode="&#x117;" horiz-adv-x="562" d="M237 600 L362 600 L362 725 L237 725 L237 600 L237 600 Z M419 200 C419 125 375 86 291 86 C217 86 177 127 175 250 L548 250 C548 433 495 529 299 529 C136 529 50 463 50 260 C50 57 133 -9 291 -9 C449 -9 532 70 532 220 L419 200 L419 200 Z M427 330 L180 330 C194 411 235 439 300 439 C379 439 415 402 428 330 L427 330 L427 330 Z " />
<glyph glyph-name="Eogonek" unicode="&#x118;" horiz-adv-x="640" d="M301 0 C268 -30 237 -68 237 -96 C237 -174 284 -215 372 -215 C417 -215 446 -208 456 -196 L445 -133 C438 -141 415 -145 378 -145 C328 -145 301 -124 301 -85 C301 -50 337 -11 355 -1 L590 -1 L590 104 L215 104 L215 336 L555 336 L555 436 L215 436 L215 645 L575 645 L575 749 L87 749 L87 -1 L301 0 L301 0 Z " />
<glyph glyph-name="eogonek" unicode="&#x119;" horiz-adv-x="562" d="M400 7 L400 7 C487 37 532 109 532 220 L419 200 C419 125 375 86 291 86 C217 86 177 127 175 250 L548 250 C548 433 495 529 299 529 C136 529 50 463 50 260 C50 57 133 -9 291 -9 C306 -9 320 -8 333 -7 C306 -35 283 -67 283 -92 C283 -172 330 -214 418 -214 C463 -214 492 -207 502 -195 L491 -132 C484 -140 461 -144 424 -144 C374 -144 347 -122 347 -81 C347 -44 383 -3 401 7 L400 7 L400 7 Z M428 330 L181 330 C195 411 236 439 301 439 C380 439 416 402 429 330 L428 330 L428 330 Z " />
<glyph glyph-name="Ecaron" unicode="&#x11a;" horiz-adv-x="640" d="M331 920 L266 980 L161 980 L273 830 L389 830 L501 980 L396 980 C396 980 352 920 331 920 L331 920 Z M590 105 L215 105 L215 337 L555 337 L555 437 L215 437 L215 646 L575 646 L575 750 L87 750 L87 0 L590 0 L590 105 L590 105 Z " />
<glyph glyph-name="ecaron" unicode="&#x11b;" horiz-adv-x="562" d="M299 690 L234 750 L129 750 L241 600 L357 600 L469 750 L364 750 C364 750 320 690 299 690 L299 690 Z M419 200 C419 125 375 86 291 86 C217 86 177 127 175 250 L548 250 C548 433 495 529 299 529 C136 529 50 463 50 260 C50 57 133 -9 291 -9 C449 -9 532 70 532 220 L419 200 L419 200 Z M427 330 L180 330 C194 411 235 439 300 439 C379 439 415 402 428 330 L427 330 L427 330 Z " />
<glyph glyph-name="Gcircumflex" unicode="&#x11c;" horiz-adv-x="772" d="M417 890 C438 890 482 830 482 830 L587 830 L475 980 L359 980 L247 830 L352 830 L417 890 L417 890 Z M374 329 L604 329 L604 153 C560 116 503 96 417 96 C268 96 189 192 189 375 C189 558 268 655 417 655 C539 655 603 602 603 500 L726 507 C726 672 619 759 417 759 C178 759 52 627 52 375 C52 123 178 -9 417 -9 C555 -9 650 25 727 90 L727 433 L374 433 L374 329 L374 329 Z " />
<glyph glyph-name="Gbreve" unicode="&#x11e;" horiz-adv-x="772" d="M266 965 C266 871 318 821 417 821 C516 821 568 871 568 965 L483 965 C483 923 460 901 417 901 C374 901 351 923 351 965 L266 965 L266 965 Z M374 329 L604 329 L604 153 C560 116 503 96 417 96 C268 96 189 192 189 375 C189 558 268 655 417 655 C539 655 603 602 603 500 L726 507 C726 672 619 759 417 759 C178 759 52 627 52 375 C52 123 178 -9 417 -9 C555 -9 650 25 727 90 L727 433 L374 433 L374 329 L374 329 Z " />
<glyph glyph-name="gbreve" unicode="&#x11f;" horiz-adv-x="591" d="M134 735 C134 641 186 591 286 591 C385 591 437 641 437 735 L352 735 C352 693 329 671 286 671 C242 671 219 693 219 735 L134 735 L134 735 Z M50 6 C-73 -157 30 -202 288 -202 C471 -202 521 -115 521 49 L521 520 L406 520 L406 458 C372 505 321 529 253 529 C120 529 50 471 50 260 C50 56 120 0 253 0 C321 0 372 23 406 68 L406 0 C406 -71 379 -108 278 -108 C164 -108 119 -88 173 -16 L50 6 L50 6 Z M175 260 C175 397 215 434 291 434 C366 434 406 374 406 260 C406 152 366 95 291 95 C215 95 175 130 175 260 L175 260 Z " />
<glyph glyph-name="Gdot" unicode="&#x120;" horiz-adv-x="772" d="M355 830 L480 830 L480 955 L355 955 L355 830 L355 830 Z M374 329 L604 329 L604 153 C560 116 503 96 417 96 C268 96 189 192 189 375 C189 558 268 655 417 655 C539 655 603 602 603 500 L726 507 C726 672 619 759 417 759 C178 759 52 627 52 375 C52 123 178 -9 417 -9 C555 -9 650 25 727 90 L727 433 L374 433 L374 329 L374 329 Z " />
<glyph glyph-name="gdot" unicode="&#x121;" horiz-adv-x="591" d="M223 600 L348 600 L348 725 L223 725 L223 600 L223 600 Z M50 6 C-73 -157 30 -202 288 -202 C471 -202 521 -115 521 49 L521 520 L406 520 L406 458 C372 505 321 529 253 529 C120 529 50 471 50 260 C50 56 120 0 253 0 C321 0 372 23 406 68 L406 0 C406 -71 379 -108 278 -108 C164 -108 119 -88 173 -16 L50 6 L50 6 Z M175 260 C175 397 215 434 291 434 C366 434 406 374 406 260 C406 152 366 95 291 95 C215 95 175 130 175 260 L175 260 Z " />
<glyph glyph-name="Hcircumflex" unicode="&#x124;" horiz-adv-x="778" d="M390 890 C411 890 455 830 455 830 L560 830 L448 980 L332 980 L220 830 L325 830 L390 890 L390 890 Z M693 0 L693 750 L565 750 L565 447 L215 447 L215 750 L87 750 L87 0 L215 0 L215 343 L565 343 L565 0 L693 0 L693 0 Z " />
<glyph glyph-name="Itilde" unicode="&#x128;" horiz-adv-x="301" d="M72 830 C72 875 79 899 93 899 C130 899 161 821 219 821 C216 821 211 911 211 911 L219 821 C283 821 317 876 317 980 L232 980 C232 935 225 911 211 911 C211 911 143 989 85 989 C87 989 88 967 89 945 L85 990 C21 990 -13 935 -13 831 L72 830 L72 830 Z M216 1 L216 751 L88 751 L88 1 L216 1 L216 1 Z " />
<glyph glyph-name="itilde" unicode="&#x129;" horiz-adv-x="295" d="M87 600 C87 645 94 669 108 669 C145 669 176 591 234 591 C231 591 226 681 226 681 L234 591 C298 591 332 646 332 750 L247 750 C247 705 240 681 226 681 C226 681 158 759 100 759 C102 759 103 737 104 715 L100 760 C36 760 2 705 2 601 L87 600 L87 600 Z M110 1 L225 1 L225 521 L110 521 L110 1 L110 1 Z " />
<glyph glyph-name="Imacron" unicode="&#x12a;" horiz-adv-x="301" d="M12 830 L292 830 L292 910 L12 910 L12 830 L12 830 Z M216 0 L216 750 L88 750 L88 0 L216 0 L216 0 Z " />
<glyph glyph-name="imacron" unicode="&#x12b;" horiz-adv-x="295" d="M27 600 L307 600 L307 680 L27 680 L27 600 L27 600 Z M110 0 L225 0 L225 520 L110 520 L110 0 L110 0 Z " />
<glyph glyph-name="Ibreve" unicode="&#x12c;" horiz-adv-x="301" d="M1 965 C1 871 53 821 152 821 C251 821 303 871 303 965 L218 965 C218 923 195 901 152 901 C109 901 86 923 86 965 L1 965 L1 965 Z M216 0 L216 750 L88 750 L88 0 L216 0 L216 0 Z " />
<glyph glyph-name="ibreve" unicode="&#x12d;" horiz-adv-x="295" d="M16 735 C16 641 68 591 167 591 C266 591 318 641 318 735 L233 735 C233 693 210 671 167 671 C124 671 101 693 101 735 L16 735 L16 735 Z M110 0 L225 0 L225 520 L110 520 L110 0 L110 0 Z " />
<glyph glyph-name="Idot" unicode="&#x130;" horiz-adv-x="301" d="M90 830 L215 830 L215 955 L90 955 L90 830 L90 830 Z M216 0 L216 750 L88 750 L88 0 L216 0 L216 0 Z " />
<glyph glyph-name="dotlessi" unicode="&#x131;" horiz-adv-x="295" d="M110 0 L225 0 L225 520 L110 520 L110 0 L110 0 Z " />
<glyph glyph-name="Jcircumflex" unicode="&#x134;" horiz-adv-x="565" d="M416 890 C437 890 481 830 481 830 L586 830 L474 980 L358 980 L246 830 L351 830 L416 890 L416 890 Z M49 279 L49 216 C49 47 102 -9 265 -9 C420 -9 480 70 480 220 L480 750 L352 750 L352 220 C352 148 328 110 265 110 C199 110 177 145 177 252 L177 302 L49 279 L49 279 Z " />
<glyph glyph-name="Lacute" unicode="&#x139;" horiz-adv-x="571" d="M100 830 L205 830 L302 980 L152 980 L100 830 L100 830 Z M541 105 L216 105 L216 750 L88 750 L88 0 L541 0 L541 105 L541 105 Z " />
<glyph glyph-name="lacute" unicode="&#x13a;" horiz-adv-x="255" d="M46 790 L151 790 L249 940 L99 940 L46 790 L46 790 Z M185 0 L185 750 L70 750 L70 0 L185 0 L185 0 Z " />
<glyph glyph-name="Lcaron" unicode="&#x13d;" horiz-adv-x="571" d="M316 759 L316 609 L401 609 L441 759 L316 759 L316 759 Z M541 105 L216 105 L216 750 L88 750 L88 0 L541 0 L541 105 L541 105 Z " />
<glyph glyph-name="lcaron" unicode="&#x13e;" horiz-adv-x="255" d="M235 759 L235 609 L320 609 L360 759 L235 759 L235 759 Z M185 0 L185 750 L70 750 L70 0 L185 0 L185 0 Z " />
<glyph glyph-name="Lslash" unicode="&#x141;" horiz-adv-x="571" d="M8 283 L88 305 L88 0 L541 0 L541 105 L216 105 L216 339 L379 383 L379 468 L216 424 L216 750 L88 750 L88 390 L8 368 L8 283 L8 283 Z " />
<glyph glyph-name="lslash" unicode="&#x142;" horiz-adv-x="255" d="M-10 283 L70 312 L70 0 L185 0 L185 354 L265 383 L265 468 L185 439 L185 750 L70 750 L70 397 L-10 368 L-10 283 L-10 283 Z " />
<glyph glyph-name="Nacute" unicode="&#x143;" horiz-adv-x="748" d="M223 830 L328 830 L425 980 L275 980 L223 830 L223 830 Z M535 172 L230 750 L87 750 L87 0 L215 0 L215 508 L484 0 L663 0 L663 750 L535 750 L535 172 L535 172 Z " />
<glyph glyph-name="nacute" unicode="&#x144;" horiz-adv-x="550" d="M225 600 L330 600 L428 750 L278 750 L225 600 L225 600 Z M485 0 L485 315 C485 466 433 525 333 525 C266 525 216 503 185 461 L185 520 L70 520 L70 0 L185 0 L185 320 C185 386 221 420 289 420 C342 420 370 391 370 315 L370 0 L485 0 L485 0 Z " />
<glyph glyph-name="Ncaron" unicode="&#x147;" horiz-adv-x="748" d="M375 920 L310 980 L205 980 L317 830 L433 830 L545 980 L440 980 C440 980 396 920 375 920 L375 920 Z M535 172 L230 750 L87 750 L87 0 L215 0 L215 508 L484 0 L663 0 L663 750 L535 750 L535 172 L535 172 Z " />
<glyph glyph-name="ncaron" unicode="&#x148;" horiz-adv-x="550" d="M278 690 L213 750 L108 750 L220 600 L336 600 L448 750 L343 750 C343 750 299 690 278 690 L278 690 Z M485 0 L485 315 C485 466 433 525 333 525 C266 525 216 503 185 461 L185 520 L70 520 L70 0 L185 0 L185 320 C185 386 221 420 289 420 C342 420 370 391 370 315 L370 0 L485 0 L485 0 Z " />
<glyph glyph-name="Omacron" unicode="&#x14c;" horiz-adv-x="814" d="M268 830 L548 830 L548 910 L268 910 L268 830 L268 830 Z M194 375 C194 549 275 655 408 655 C541 655 622 549 622 375 C622 192 548 96 408 96 C268 96 194 192 194 375 L194 375 Z M57 375 C57 123 178 -9 408 -9 C638 -9 759 123 759 375 C759 614 626 759 408 759 C190 759 57 614 57 375 L57 375 Z " />
<glyph glyph-name="omacron" unicode="&#x14d;" horiz-adv-x="590" d="M155 600 L435 600 L435 680 L155 680 L155 600 L155 600 Z M175 260 C175 399 216 444 295 444 C385 444 415 381 415 260 C415 121 374 76 295 76 C205 76 175 139 175 260 L175 260 Z M50 260 C50 84 110 -9 295 -9 C455 -9 540 57 540 260 C540 436 480 529 295 529 C135 529 50 463 50 260 L50 260 Z " />
<glyph glyph-name="Obreve" unicode="&#x14e;" horiz-adv-x="814" d="M257 965 C257 871 309 821 408 821 C507 821 559 871 559 965 L474 965 C474 923 451 901 408 901 C365 901 342 923 342 965 L257 965 L257 965 Z M194 375 C194 549 275 655 408 655 C541 655 622 549 622 375 C622 192 548 96 408 96 C268 96 194 192 194 375 L194 375 Z M57 375 C57 123 178 -9 408 -9 C638 -9 759 123 759 375 C759 614 626 759 408 759 C190 759 57 614 57 375 L57 375 Z " />
<glyph glyph-name="obreve" unicode="&#x14f;" horiz-adv-x="590" d="M144 735 C144 641 196 591 295 591 C394 591 446 641 446 735 L361 735 C361 693 338 671 295 671 C252 671 229 693 229 735 L144 735 L144 735 Z M175 260 C175 399 216 444 295 444 C385 444 415 381 415 260 C415 121 374 76 295 76 C205 76 175 139 175 260 L175 260 Z M50 260 C50 84 110 -9 295 -9 C455 -9 540 57 540 260 C540 436 480 529 295 529 C135 529 50 463 50 260 L50 260 Z " />
<glyph glyph-name="Racute" unicode="&#x154;" horiz-adv-x="624" d="M286 830 L391 830 L488 980 L338 980 L286 830 L286 830 Z M590 50 L432 329 C543 349 589 409 589 524 C589 686 515 749 326 749 L87 749 L87 -1 L215 -1 L215 320 L290 320 L471 -1 L618 -1 C614 6 591 49 589 49 L590 50 L590 50 Z M214 420 L214 649 L320 649 C421 649 460 614 460 524 C460 449 423 420 329 420 L214 420 L214 420 Z " />
<glyph glyph-name="racute" unicode="&#x155;" horiz-adv-x="370" d="M158 600 L263 600 L360 750 L210 750 L158 600 L158 600 Z M350 395 L350 520 C266 520 216 498 185 444 L185 520 L70 520 L70 0 L185 0 L185 230 C185 338 216 395 329 395 L350 395 L350 395 Z " />
<glyph glyph-name="Rcaron" unicode="&#x158;" horiz-adv-x="624" d="M338 920 L273 980 L168 980 L280 830 L396 830 L508 980 L403 980 C403 980 359 920 338 920 L338 920 Z M590 50 L432 329 C543 349 589 409 589 524 C589 686 515 749 326 749 L87 749 L87 -1 L215 -1 L215 320 L290 320 L471 -1 L618 -1 C614 6 591 49 589 49 L590 50 L590 50 Z M214 420 L214 649 L320 649 C421 649 460 614 460 524 C460 449 423 420 329 420 L214 420 L214 420 Z " />
<glyph glyph-name="rcaron" unicode="&#x159;" horiz-adv-x="370" d="M210 690 L145 750 L40 750 L152 600 L268 600 L380 750 L275 750 C275 750 231 690 210 690 L210 690 Z M350 395 L350 520 C266 520 216 498 185 444 L185 520 L70 520 L70 0 L185 0 L185 230 C185 338 216 395 329 395 L350 395 L350 395 Z " />
<glyph glyph-name="Sacute" unicode="&#x15a;" horiz-adv-x="625" d="M249 830 L354 830 L452 980 L302 980 L249 830 L249 830 Z M98 265 C98 265 37 267 31 267 C31 255 33 185 36 185 C59 19 160 -9 333 -9 C518 -9 590 67 590 210 C590 351 516 419 327 451 C213 470 169 501 169 559 C169 615 208 645 283 645 C367 645 418 626 455 507 L572 544 C514 730 428 759 283 759 C122 759 37 686 37 546 C37 415 109 352 293 321 C415 300 462 268 462 206 C462 139 426 103 333 103 C222 103 164 125 164 263 L98 265 L98 265 Z M36 267 L34 267 L36 267 L36 267 Z " />
<glyph glyph-name="sacute" unicode="&#x15b;" horiz-adv-x="500" d="M206 600 L311 600 L408 750 L258 750 L206 600 L206 600 Z M81 225 C81 227 30 235 25 236 C25 48 105 -3 256 -3 C396 -3 470 48 470 144 C470 234 414 289 271 312 C197 324 168 349 168 388 C168 423 199 441 258 441 C322 441 355 416 355 323 C387 318 419 312 451 307 L456 306 C456 479 388 526 258 526 C128 526 59 475 59 379 C59 287 110 231 243 210 C324 197 355 172 355 133 C355 103 321 87 256 87 C177 87 136 115 136 216 L81 225 L81 225 Z M30 235 L25 236 L30 236 L30 235 L30 235 Z M451 307 L454 306 L451 306 L451 307 L451 307 Z " />
<glyph glyph-name="Scircumflex" unicode="&#x15c;" horiz-adv-x="625" d="M302 890 C323 890 367 830 367 830 L472 830 L360 980 L244 980 L132 830 L237 830 L302 890 L302 890 Z M98 265 C98 265 37 267 31 267 C31 255 33 185 36 185 C59 19 160 -9 333 -9 C518 -9 590 67 590 210 C590 351 516 419 327 451 C213 470 169 501 169 559 C169 615 208 645 283 645 C367 645 418 626 455 507 L572 544 C514 730 428 759 283 759 C122 759 37 686 37 546 C37 415 109 352 293 321 C415 300 462 268 462 206 C462 139 426 103 333 103 C222 103 164 125 164 263 L98 265 L98 265 Z M36 267 L34 267 L36 267 L36 267 Z " />
<glyph glyph-name="Scedilla" unicode="&#x15e;" horiz-adv-x="625" d="M310 -118 C310 -119 310 -120 310 -120 C310 -119 310 -118 310 -117 L310 -118 L310 -118 Z M310 -117 C314 -108 324 -103 340 -103 C363 -103 375 -119 375 -148 C375 -178 362 -194 337 -194 C308 -194 294 -180 297 -153 L253 -189 C248 -228 278 -249 340 -249 C406 -249 440 -214 440 -148 C440 -83 409 -48 350 -48 C340 -48 332 -50 326 -55 L338 -8 C520 -7 591 69 591 211 C591 352 517 420 328 452 C214 471 170 502 170 560 C170 616 209 646 284 646 C368 646 419 627 456 508 L573 545 C515 731 429 760 284 760 C123 760 38 687 38 547 C38 416 110 353 294 322 C416 301 463 269 463 207 C463 140 427 104 334 104 C223 104 165 126 165 264 L99 266 C77 267 55 268 33 269 C33 239 35 212 38 188 L38 188 C59 34 148 -1 299 -5 L276 -96 C276 -96 281 -115 311 -116 L318 -88 C317 -97 313 -109 311 -114 L310 -117 L310 -117 Z M37 271 L35 271 L37 271 L37 271 Z " />
<glyph glyph-name="scedilla" unicode="&#x15f;" horiz-adv-x="500" d="M233 -118 C233 -119 233 -120 233 -120 C233 -119 233 -118 233 -117 L233 -118 L233 -118 Z M233 -117 C237 -108 247 -103 263 -103 C286 -103 298 -119 298 -148 C298 -178 285 -194 260 -194 C231 -194 217 -180 220 -153 L176 -189 C171 -228 201 -249 263 -249 C329 -249 363 -214 363 -148 C363 -83 332 -48 273 -48 C264 -48 256 -50 250 -54 L263 -2 C399 -1 471 50 471 145 C471 235 415 290 272 313 C198 325 169 350 169 389 C169 424 200 442 259 442 C323 442 356 417 356 324 C390 318 424 312 458 306 C458 479 390 526 260 526 C130 526 61 475 61 379 C61 287 112 231 245 210 C326 197 357 172 357 133 C357 103 323 87 258 87 C179 87 138 115 138 216 L83 226 C64 230 45 233 26 236 C26 63 94 6 223 -2 L198 -99 C198 -99 203 -118 233 -119 L240 -93 C239 -102 236 -113 234 -117 L233 -117 L233 -117 Z M31 235 L26 236 L31 236 L31 235 L31 235 Z M452 307 L455 306 L452 306 L452 307 L452 307 Z " />
<glyph glyph-name="Scaron" unicode="&#x160;" horiz-adv-x="625" d="M302 920 L237 980 L132 980 L244 830 L360 830 L472 980 L367 980 C367 980 323 920 302 920 L302 920 Z M98 265 C98 265 37 267 31 267 C31 255 33 185 36 185 C59 19 160 -9 333 -9 C518 -9 590 67 590 210 C590 351 516 419 327 451 C213 470 169 501 169 559 C169 615 208 645 283 645 C367 645 418 626 455 507 L572 544 C514 730 428 759 283 759 C122 759 37 686 37 546 C37 415 109 352 293 321 C415 300 462 268 462 206 C462 139 426 103 333 103 C222 103 164 125 164 263 L98 265 L98 265 Z M36 267 L34 267 L36 267 L36 267 Z " />
<glyph glyph-name="scaron" unicode="&#x161;" horiz-adv-x="500" d="M258 690 L193 750 L88 750 L200 600 L316 600 L428 750 L323 750 C323 750 279 690 258 690 L258 690 Z M81 225 C81 227 30 235 25 236 C25 48 105 -3 256 -3 C396 -3 470 48 470 144 C470 234 414 289 271 312 C197 324 168 349 168 388 C168 423 199 441 258 441 C322 441 355 416 355 323 C387 318 419 312 451 307 L456 306 C456 479 388 526 258 526 C128 526 59 475 59 379 C59 287 110 231 243 210 C324 197 355 172 355 133 C355 103 321 87 256 87 C177 87 136 115 136 216 L81 225 L81 225 Z M30 235 L25 236 L30 236 L30 235 L30 235 Z M451 307 L454 306 L451 306 L451 307 L451 307 Z " />
<glyph glyph-name="Tcaron" unicode="&#x164;" horiz-adv-x="595" d="M298 920 L233 980 L128 980 L240 830 L356 830 L468 980 L363 980 C363 980 319 920 298 920 L298 920 Z M362 0 L362 646 L585 646 L585 750 L10 750 L10 646 L233 646 L233 0 L362 0 L362 0 Z " />
<glyph glyph-name="tcaron" unicode="&#x165;" horiz-adv-x="345" d="M255 759 L255 609 L340 609 L380 759 L255 759 L255 759 Z M315 520 L205 520 L205 751 L90 655 L90 520 L10 520 L10 430 L90 430 L90 145 C90 26 85 0 203 0 L315 0 L315 94 L253 94 C203 94 205 103 205 145 L205 430 L315 430 L315 520 L315 520 Z " />
<glyph glyph-name="Utilde" unicode="&#x168;" horiz-adv-x="731" d="M286 821 C286 866 293 890 307 890 C344 890 375 812 433 812 C430 812 425 902 425 902 L433 812 C497 812 531 867 531 971 L446 971 C446 926 439 902 425 902 C425 902 357 980 299 980 C301 980 302 958 303 936 L299 981 C235 981 201 926 201 822 L286 821 L286 821 Z M80 290 C80 75 160 -8 366 -8 C571 -8 651 75 651 290 L651 751 L523 751 L523 313 C523 167 479 111 366 111 C252 111 208 167 208 313 L208 751 L80 751 L80 290 L80 290 Z " />
<glyph glyph-name="utilde" unicode="&#x169;" horiz-adv-x="550" d="M193 600 C193 645 200 669 214 669 C251 669 282 591 340 591 C337 591 332 681 332 681 L340 591 C404 591 438 646 438 750 L353 750 C353 705 346 681 332 681 C332 681 264 759 206 759 C208 759 209 737 210 715 L206 760 C142 760 108 705 108 601 L193 600 L193 600 Z M480 1 L480 521 L365 521 L365 211 C365 136 330 96 263 96 C192 96 180 125 180 201 L180 521 L65 521 L65 201 C65 50 89 -8 227 -8 C291 -8 337 18 365 68 L365 2 L480 1 L480 1 Z " />
<glyph glyph-name="Umacron" unicode="&#x16a;" horiz-adv-x="731" d="M226 821 L506 821 L506 901 L226 901 L226 821 L226 821 Z M80 289 C80 74 160 -9 366 -9 C571 -9 651 74 651 289 L651 750 L523 750 L523 312 C523 166 479 110 366 110 C252 110 208 166 208 312 L208 750 L80 750 L80 289 L80 289 Z " />
<glyph glyph-name="umacron" unicode="&#x16b;" horiz-adv-x="550" d="M133 600 L413 600 L413 680 L133 680 L133 600 L133 600 Z M480 0 L480 520 L365 520 L365 210 C365 135 330 95 263 95 C192 95 180 124 180 200 L180 520 L65 520 L65 200 C65 49 89 -9 227 -9 C291 -9 337 17 365 67 L365 1 L480 0 L480 0 Z " />
<glyph glyph-name="Ubreve" unicode="&#x16c;" horiz-adv-x="731" d="M214 956 C214 862 266 812 366 812 C465 812 517 862 517 956 L432 956 C432 914 409 892 366 892 C322 892 299 914 299 956 L214 956 L214 956 Z M80 289 C80 74 160 -9 366 -9 C571 -9 651 74 651 289 L651 750 L523 750 L523 312 C523 166 479 110 366 110 C252 110 208 166 208 312 L208 750 L80 750 L80 289 L80 289 Z " />
<glyph glyph-name="ubreve" unicode="&#x16d;" horiz-adv-x="550" d="M121 735 C121 641 173 591 273 591 C372 591 424 641 424 735 L339 735 C339 693 316 671 273 671 C229 671 206 693 206 735 L121 735 L121 735 Z M480 0 L480 520 L365 520 L365 210 C365 135 330 95 263 95 C192 95 180 124 180 200 L180 520 L65 520 L65 200 C65 49 89 -9 227 -9 C291 -9 337 17 365 67 L365 1 L480 0 L480 0 Z " />
<glyph glyph-name="Uring" unicode="&#x16e;" horiz-adv-x="731" d="M337 906 C337 927 346 937 366 937 C385 937 394 927 394 906 C394 883 386 874 366 874 C345 874 337 883 337 906 L337 906 Z M280 906 C280 845 304 821 366 821 C427 821 451 845 451 906 C451 964 424 990 366 990 C307 990 280 964 280 906 L280 906 Z M80 289 C80 74 160 -9 366 -9 C571 -9 651 74 651 289 L651 750 L523 750 L523 312 C523 166 479 110 366 110 C252 110 208 166 208 312 L208 750 L80 750 L80 289 L80 289 Z " />
<glyph glyph-name="uring" unicode="&#x16f;" horiz-adv-x="550" d="M244 685 C244 706 253 716 273 716 C292 716 301 706 301 685 C301 662 293 653 273 653 C252 653 244 662 244 685 L244 685 Z M187 685 C187 624 211 600 273 600 C334 600 358 624 358 685 C358 743 331 769 273 769 C214 769 187 743 187 685 L187 685 Z M480 0 L480 520 L365 520 L365 210 C365 135 330 95 263 95 C192 95 180 124 180 200 L180 520 L65 520 L65 200 C65 49 89 -9 227 -9 C291 -9 337 17 365 67 L365 1 L480 0 L480 0 Z " />
<glyph glyph-name="Wcircumflex" unicode="&#x174;" horiz-adv-x="822" d="M412 890 C433 890 477 830 477 830 L582 830 L470 980 L354 980 L242 830 L347 830 L412 890 L412 890 Z M22 700 L167 0 L291 0 L411 493 L529 0 L652 0 L802 704 C804 713 809 741 811 750 L674 750 C674 750 666 707 665 702 L586 271 L472 750 L348 750 L238 271 L155 709 C154 718 148 750 148 750 L11 750 L14 737 C16 727 21 700 22 700 L22 700 Z " />
<glyph glyph-name="Ycircumflex" unicode="&#x176;" horiz-adv-x="627" d="M317 890 C338 890 382 830 382 830 L487 830 L375 980 L259 980 L147 830 L252 830 L317 890 L317 890 Z M145 750 L17 750 C23 740 43 705 46 700 L254 330 L254 0 L382 0 L382 330 L590 700 C591 700 596 709 619 750 L491 750 C487 743 463 700 463 700 L319 439 L175 700 C175 700 169 710 147 750 L145 750 L145 750 Z " />
<glyph glyph-name="Ydieresis" unicode="&#x178;" horiz-adv-x="627" d="M335 830 L460 830 L460 955 L335 955 L335 830 L335 830 Z M174 830 L299 830 L299 955 L174 955 L174 830 L174 830 Z M145 750 L17 750 C23 740 43 705 46 700 L254 330 L254 0 L382 0 L382 330 L590 700 C591 700 596 709 619 750 L491 750 C487 743 463 700 463 700 L319 439 L175 700 C175 700 169 710 147 750 L145 750 L145 750 Z " />
<glyph glyph-name="Zacute" unicode="&#x179;" horiz-adv-x="655" d="M283 830 L388 830 L485 980 L335 980 L283 830 L283 830 Z M610 105 L204 105 L610 646 L610 750 L60 750 L60 646 L451 646 L45 105 L45 0 L610 0 L610 105 L610 105 Z " />
<glyph glyph-name="zacute" unicode="&#x17a;" horiz-adv-x="460" d="M190 600 L295 600 L393 750 L243 750 L190 600 L190 600 Z M45 430 L278 430 L30 70 L30 0 L440 0 L440 90 L170 90 L424 450 L424 520 L45 520 L45 430 L45 430 Z " />
<glyph glyph-name="Zdot" unicode="&#x17b;" horiz-adv-x="655" d="M273 830 L398 830 L398 955 L273 955 L273 830 L273 830 Z M610 105 L204 105 L610 646 L610 750 L60 750 L60 646 L451 646 L45 105 L45 0 L610 0 L610 105 L610 105 Z " />
<glyph glyph-name="zdot" unicode="&#x17c;" horiz-adv-x="460" d="M180 600 L305 600 L305 725 L180 725 L180 600 L180 600 Z M45 430 L278 430 L30 70 L30 0 L440 0 L440 90 L170 90 L424 450 L424 520 L45 520 L45 430 L45 430 Z " />
<glyph glyph-name="Zcaron" unicode="&#x17d;" horiz-adv-x="655" d="M335 920 L270 980 L165 980 L277 830 L393 830 L505 980 L400 980 C400 980 356 920 335 920 L335 920 Z M610 105 L204 105 L610 646 L610 750 L60 750 L60 646 L451 646 L45 105 L45 0 L610 0 L610 105 L610 105 Z " />
<glyph glyph-name="zcaron" unicode="&#x17e;" horiz-adv-x="460" d="M243 690 L178 750 L73 750 L185 600 L301 600 L413 750 L308 750 C308 750 264 690 243 690 L243 690 Z M45 430 L278 430 L30 70 L30 0 L440 0 L440 90 L170 90 L424 450 L424 520 L45 520 L45 430 L45 430 Z " />
<glyph glyph-name="oogonek" unicode="&#x1eb;" horiz-adv-x="754" d="M184 298 C184 431 258 512 380 512 C501 512 575 431 575 298 C575 226 557 172 522 136 C504 162 485 190 464 221 L386 169 C405 141 423 115 439 91 C421 87 401 85 379 85 C251 85 183 158 183 298 L184 298 L184 298 Z M59 298 C59 97 169 -9 379 -9 C423 -9 463 -4 498 5 C543 -58 568 -90 568 -90 L646 -38 C646 -38 624 -10 585 44 C659 94 697 179 697 297 C697 489 576 605 378 605 C179 605 58 489 58 297 L59 298 L59 298 Z " />
<glyph glyph-name="Adotabove" unicode="&#x226;" horiz-adv-x="725" d="M306 830 L431 830 L431 955 L306 955 L306 830 L306 830 Z M276 700 L29 50 C27 45 20 30 10 0 L147 0 L162 40 C165 47 167 50 166 50 L208 162 L519 162 L579 0 L716 0 C716 0 702 39 700 45 L436 750 L297 750 C295 745 288 730 278 700 L276 700 L276 700 Z M245 260 L365 582 L484 260 L245 260 L245 260 Z " />
<glyph glyph-name="G_sc" unicode="&#x262;" horiz-adv-x="712" d="M356 270 L556 270 L556 148 C507 107 454 85 385 85 C250 85 179 158 179 298 C179 438 250 512 385 512 C496 512 554 483 554 429 L664 435 C664 450 662 464 659 477 L659 477 L659 477 C637 562 544 606 385 606 C169 606 55 500 55 298 C55 97 169 -9 385 -9 C501 -9 588 26 667 92 L667 364 L356 364 L356 270 L356 270 Z " />
<glyph glyph-name="I_sc" unicode="&#x26a;" horiz-adv-x="295" d="M210 0 L210 597 L94 597 L94 0 L210 0 L210 0 Z " />
<glyph glyph-name="N_sc" unicode="&#x274;" horiz-adv-x="656" d="M456 150 L212 597 L90 597 L90 0 L206 0 L206 384 L415 0 L571 0 L571 597 L456 597 L456 150 L456 150 Z " />
<glyph glyph-name="R_sc" unicode="&#x280;" horiz-adv-x="564" d="M522 50 L375 264 C485 279 529 326 529 418 C529 547 459 597 278 597 L90 597 L90 0 L206 0 L206 258 L247 258 L423 0 L556 0 C551 7 524 50 522 50 L522 50 Z M206 348 L206 507 L273 507 C374 507 413 482 413 418 C413 368 376 348 282 348 L206 348 L206 348 Z " />
<glyph glyph-name="Y_sc" unicode="&#x28f;" horiz-adv-x="566" d="M229 0 L345 0 L345 330 L549 588 C554 594 556 597 556 597 L431 597 C423 587 402 561 395 551 L287 414 L179 551 C172 561 151 586 143 596 L18 596 C18 596 20 593 25 587 L229 329 L229 0 L229 0 Z " />
<glyph glyph-name="B_sc" unicode="&#x299;" horiz-adv-x="626" d="M467 335 C529 353 561 388 561 439 C561 562 509 596 316 596 L91 596 L91 -1 L347 -1 C540 -1 592 38 592 180 C592 261 550 313 468 334 L467 335 L467 335 Z M207 366 L207 506 L321 506 C415 506 441 490 441 430 C441 388 391 366 297 366 L207 366 L207 366 Z M207 89 L207 279 L300 279 C409 279 467 249 467 193 C467 111 434 89 314 89 L207 89 L207 89 Z " />
<glyph glyph-name="H_sc" unicode="&#x29c;" horiz-adv-x="692" d="M607 0 L607 597 L492 597 L492 350 L206 350 L206 597 L90 597 L90 0 L206 0 L206 256 L492 256 L492 0 L607 0 L607 0 Z " />
<glyph glyph-name="L_sc" unicode="&#x29f;" horiz-adv-x="505" d="M475 94 L210 94 L210 597 L94 597 L94 0 L475 0 L475 94 L475 94 Z " />
<glyph glyph-name="circumflex" unicode="&#x2c6;" horiz-adv-x="340" d="M170 660 C191 660 235 600 235 600 L340 600 L228 750 L112 750 L0 600 L105 600 L170 660 L170 660 Z " />
<glyph glyph-name="caron" unicode="&#x2c7;" horiz-adv-x="340" d="M170 690 L105 750 L0 750 L112 600 L228 600 L340 750 L235 750 C235 750 191 690 170 690 L170 690 Z " />
<glyph glyph-name="firsttonechinese" unicode="&#x2c9;" horiz-adv-x="340" d="M30 600 L310 600 L310 680 L30 680 L30 600 L30 600 Z " />
<glyph glyph-name="breve" unicode="&#x2d8;" horiz-adv-x="340" d="M19 735 C19 641 71 591 170 591 C269 591 321 641 321 735 L236 735 C236 693 213 671 170 671 C127 671 104 693 104 735 L19 735 L19 735 Z " />
<glyph glyph-name="dotaccent" unicode="&#x2d9;" horiz-adv-x="340" d="M108 600 L233 600 L233 725 L108 725 L108 600 L108 600 Z " />
<glyph glyph-name="ring" unicode="&#x2da;" horiz-adv-x="340" d="M142 685 C142 706 151 716 170 716 C190 716 199 706 199 685 C199 662 191 653 170 653 C150 653 142 662 142 685 L142 685 Z M85 685 C85 624 109 600 170 600 C232 600 256 624 256 685 C256 743 229 769 170 769 C112 769 85 743 85 685 L85 685 Z " />
<glyph glyph-name="A_sc" unicode="&#x1d00;" horiz-adv-x="665" d="M252 547 L14 0 L134 0 C134 0 151 40 153 46 L185 120 L484 120 L516 46 C518 40 535 0 535 0 L655 0 L398 597 L274 597 C271 590 252 547 252 547 L252 547 Z M222 207 L334 471 L446 207 L222 207 L222 207 Z " />
<glyph glyph-name="C_sc" unicode="&#x1d04;" horiz-adv-x="662" d="M531 201 C531 125 470 85 355 85 C240 85 179 172 179 298 C179 424 240 512 355 512 C470 512 531 472 531 396 L642 402 C642 536 543 606 355 606 C159 606 55 480 55 298 C55 117 159 -9 355 -9 C543 -9 642 61 642 195 L531 201 L531 201 Z " />
<glyph glyph-name="D_sc" unicode="&#x1d05;" horiz-adv-x="705" d="M320 0 C564 0 650 77 650 298 C650 513 549 597 290 597 L90 597 L90 0 L320 0 L320 0 Z M206 90 L206 507 L295 507 C461 507 526 449 526 298 C526 143 470 89 312 89 C277 89 241 90 206 90 L206 90 Z " />
<glyph glyph-name="E_sc" unicode="&#x1d07;" horiz-adv-x="571" d="M521 94 L206 94 L206 263 L486 263 L486 353 L206 353 L206 503 L506 503 L506 597 L90 597 L90 0 L521 0 L521 94 L521 94 Z " />
<glyph glyph-name="J_sc" unicode="&#x1d0a;" horiz-adv-x="493" d="M52 280 L52 217 C52 47 96 -9 230 -9 C358 -9 408 54 408 175 L408 597 L292 597 L292 175 C292 125 275 98 230 98 C183 98 167 136 167 250 L168 300 L52 280 L52 280 Z " />
<glyph glyph-name="K_sc" unicode="&#x1d0b;" horiz-adv-x="609" d="M599 0 C599 0 575 39 571 45 L365 380 L552 576 C565 589 572 596 572 596 L437 596 L206 346 L206 596 L90 596 L90 -1 L206 -1 L206 213 L207 213 L280 290 L439 43 C441 40 444 35 448 29 L467 0 L599 0 L599 0 Z " />
<glyph glyph-name="M_sc" unicode="&#x1d0d;" horiz-adv-x="831" d="M746 0 L746 597 L566 597 L418 153 L266 597 L91 597 L91 0 L202 0 L202 474 L367 0 L470 0 L635 488 L635 0 L746 0 L746 0 Z " />
<glyph glyph-name="O_sc" unicode="&#x1d0f;" horiz-adv-x="754" d="M184 298 C184 431 258 512 380 512 C501 512 575 431 575 298 C575 158 508 85 380 85 C252 85 184 158 184 298 L184 298 Z M60 298 C60 97 170 -9 380 -9 C589 -9 699 97 699 298 C699 490 578 606 380 606 C181 606 60 490 60 298 L60 298 Z " />
<glyph glyph-name="P_sc" unicode="&#x1d18;" horiz-adv-x="564" d="M206 0 L206 242 L278 242 C459 242 529 291 529 418 C529 547 459 597 278 597 L90 597 L90 0 L206 0 L206 0 Z M206 332 L206 507 L273 507 C374 507 413 482 413 418 C413 356 377 332 283 332 L206 332 L206 332 Z " />
<glyph glyph-name="T_sc" unicode="&#x1d1b;" horiz-adv-x="535" d="M325 0 L325 503 L525 503 L525 597 L10 597 L10 503 L210 503 L210 0 L325 0 L325 0 Z " />
<glyph glyph-name="U_sc" unicode="&#x1d1c;" horiz-adv-x="659" d="M83 230 C83 58 152 -9 331 -9 C510 -9 579 58 579 230 L579 597 L463 597 L463 250 C463 140 426 98 331 98 C236 98 199 140 199 250 L199 597 L83 597 L83 230 L83 230 Z " />
<glyph glyph-name="V_sc" unicode="&#x1d20;" horiz-adv-x="559" d="M544 584 C547 592 549 597 549 597 L425 597 C425 597 423 592 420 582 L283 158 L140 593 C139 596 139 597 139 597 L15 597 C15 597 18 589 23 575 L229 0 L339 0 L544 584 L544 584 Z " />
<glyph glyph-name="W_sc" unicode="&#x1d21;" horiz-adv-x="749" d="M739 597 L615 597 C615 597 614 593 613 586 L536 216 L433 596 L434 598 L322 598 L222 217 L151 548 C152 548 151 553 149 562 L141 598 L17 598 C17 598 18 592 21 582 L158 1 L269 1 L378 394 L485 1 L596 1 L729 548 C731 548 741 598 741 598 L739 597 L739 597 Z " />
<glyph glyph-name="Z_sc" unicode="&#x1d22;" horiz-adv-x="595" d="M550 94 L184 94 L550 503 L550 597 L60 597 L60 503 L410 503 L45 94 L45 0 L550 0 L550 94 L550 94 Z " />
<glyph glyph-name="Wgrave" unicode="&#x1e80;" horiz-adv-x="822" d="M360 830 L465 830 L412 980 L262 980 L360 830 L360 830 Z M22 700 L167 0 L291 0 L411 493 L529 0 L652 0 L802 704 C804 713 809 741 811 750 L674 750 C674 750 666 707 665 702 L586 271 L472 750 L348 750 L238 271 L155 709 C154 718 148 750 148 750 L11 750 L14 737 C16 727 21 700 22 700 L22 700 Z " />
<glyph glyph-name="Wacute" unicode="&#x1e82;" horiz-adv-x="822" d="M360 830 L465 830 L562 980 L412 980 L360 830 L360 830 Z M22 700 L167 0 L291 0 L411 493 L529 0 L652 0 L802 704 C804 713 809 741 811 750 L674 750 C674 750 666 707 665 702 L586 271 L472 750 L348 750 L238 271 L155 709 C154 718 148 750 148 750 L11 750 L14 737 C16 727 21 700 22 700 L22 700 Z " />
<glyph glyph-name="Wdieresis" unicode="&#x1e84;" horiz-adv-x="822" d="M430 830 L555 830 L555 955 L430 955 L430 830 L430 830 Z M269 830 L394 830 L394 955 L269 955 L269 830 L269 830 Z M22 700 L167 0 L291 0 L411 493 L529 0 L652 0 L802 704 C804 713 809 741 811 750 L674 750 C674 750 666 707 665 702 L586 271 L472 750 L348 750 L238 271 L155 709 C154 718 148 750 148 750 L11 750 L14 737 C16 727 21 700 22 700 L22 700 Z " />
<glyph glyph-name="Etilde" unicode="&#x1ebc;" horiz-adv-x="640" d="M251 830 C251 875 258 899 272 899 C309 899 340 821 398 821 C395 821 390 911 390 911 L398 821 C462 821 496 876 496 980 L411 980 C411 935 404 911 390 911 C390 911 322 989 264 989 C266 989 267 967 268 945 L264 990 C200 990 166 935 166 831 L251 830 L251 830 Z M590 106 L215 106 L215 338 L555 338 L555 438 L215 438 L215 647 L575 647 L575 751 L87 751 L87 1 L590 1 L590 106 L590 106 Z " />
<glyph glyph-name="Ygrave" unicode="&#x1ef2;" horiz-adv-x="627" d="M265 830 L370 830 L317 980 L167 980 L265 830 L265 830 Z M145 750 L17 750 C23 740 43 705 46 700 L254 330 L254 0 L382 0 L382 330 L590 700 C591 700 596 709 619 750 L491 750 C487 743 463 700 463 700 L319 439 L175 700 C175 700 169 710 147 750 L145 750 L145 750 Z " />
<glyph glyph-name="endash" unicode="&#x2013;" horiz-adv-x="410" d="M5 216 L405 216 L405 311 L5 311 L5 216 L5 216 Z " />
<glyph glyph-name="emdash" unicode="&#x2014;" horiz-adv-x="700" d="M50 216 L650 216 L650 311 L50 311 L50 216 L50 216 Z " />
<glyph glyph-name="quoteleft" unicode="&#x2018;" horiz-adv-x="225" d="M175 759 C77 759 50 718 50 639 L50 514 L175 514 L175 639 L125 639 C125 678 136 699 175 699 L175 759 L175 759 Z " />
<glyph glyph-name="quoteright" unicode="&#x2019;" horiz-adv-x="225" d="M113 759 L113 634 L163 634 C163 587 152 574 113 574 L113 514 C211 514 238 540 238 634 L238 759 L113 759 L113 759 Z " />
<glyph glyph-name="quotedblleft" unicode="&#x201c;" horiz-adv-x="475" d="M425 759 C327 759 300 718 300 639 L300 514 L425 514 L425 639 L375 639 C375 678 386 699 425 699 L425 759 L425 759 Z M238 759 C140 759 113 718 113 639 L113 514 L238 514 L238 639 L188 639 C188 678 199 699 238 699 L238 759 L238 759 Z " />
<glyph glyph-name="quotedblright" unicode="&#x201d;" horiz-adv-x="475" d="M300 759 L300 634 L350 634 C350 587 339 574 300 574 L300 514 C398 514 425 540 425 634 L425 759 L300 759 L300 759 Z M113 759 L113 634 L163 634 C163 587 152 574 113 574 L113 514 C211 514 238 540 238 634 L238 759 L113 759 L113 759 Z " />
<glyph glyph-name="dagger" unicode="&#x2020;" horiz-adv-x="575" d="M515 580 L345 580 L345 750 L230 750 L230 580 L60 580 L60 480 L230 480 L230 -50 L345 -50 L345 480 L515 480 L515 580 L515 580 Z " />
<glyph glyph-name="daggerdbl" unicode="&#x2021;" horiz-adv-x="575" d="M60 120 L230 120 L230 -50 L345 -50 L345 120 L515 120 L515 220 L345 220 L345 480 L515 480 L515 580 L345 580 L345 750 L230 750 L230 580 L60 580 L60 480 L230 480 L230 220 L60 220 L60 120 L60 120 Z " />
<glyph glyph-name="bullet" unicode="&#x2022;" horiz-adv-x="225" d="M50 198 L175 198 L175 323 L50 323 L50 198 L50 198 Z " />
<glyph glyph-name="ellipsis" unicode="&#x2026;" horiz-adv-x="625" d="M450 0 L575 0 L575 125 L450 125 L450 0 L450 0 Z M250 0 L375 0 L375 125 L250 125 L250 0 L250 0 Z M50 0 L175 0 L175 125 L50 125 L50 0 L50 0 Z " />
<glyph glyph-name="perthousand" unicode="&#x2030;" horiz-adv-x="780" d="M879 51 C835 51 818 82 818 141 C818 200 835 231 879 231 C924 231 941 200 941 141 C941 82 924 51 879 51 L879 51 Z M879 -9 C971 -9 1006 43 1006 141 C1006 239 971 291 879 291 C788 291 753 239 753 141 C753 43 788 -9 879 -9 L879 -9 Z M594 51 C550 51 533 82 533 141 C533 200 550 231 594 231 C639 231 656 200 656 141 C656 82 639 51 594 51 L594 51 Z M594 -9 C686 -9 721 43 721 141 C721 239 686 291 594 291 C503 291 468 239 468 141 C468 43 503 -9 594 -9 L594 -9 Z M186 519 C141 519 124 550 124 609 C124 668 141 699 186 699 C230 699 247 668 247 609 C247 550 230 519 186 519 L186 519 Z M186 459 C277 459 312 511 312 609 C312 707 277 759 186 759 C94 759 59 707 59 609 C59 511 94 459 186 459 L186 459 Z M160 0 L200 0 L620 750 L580 750 L160 0 L160 0 Z " />
<glyph glyph-name="guilsinglleft" unicode="&#x2039;" horiz-adv-x="265" d="M190 470 L50 260 L190 50 L290 50 L150 260 L290 470 L190 470 L190 470 Z " />
<glyph glyph-name="guilsinglright" unicode="&#x203a;" horiz-adv-x="265" d="M50 470 L190 260 L50 50 L150 50 L290 260 L150 470 L50 470 L50 470 Z " />
<glyph glyph-name="fraction" unicode="&#x2044;" horiz-adv-x="580" d="M60 0 L100 0 L520 750 L480 750 L60 0 L60 0 Z " />
<glyph glyph-name="Euro" unicode="&#x20ac;" horiz-adv-x="722" d="M-7 281 L59 281 C87 106 198 -9 383 -9 C591 -9 701 84 701 261 L578 268 C578 155 511 96 383 96 C281 96 218 169 196 281 L413 281 L422 345 L189 345 C188 364 188 385 189 404 L422 404 L431 468 L196 468 C218 581 281 654 383 654 C511 654 578 594 578 481 L701 488 C701 665 591 758 383 758 C198 758 87 643 59 468 L11 468 L2 404 L53 404 C52 384 52 363 53 343 L2 343 L-7 281 L-7 281 Z " />
<glyph glyph-name="minus" unicode="&#x2212;" horiz-adv-x="615" d="M50 228 L565 228 L565 298 L50 298 L50 228 L50 228 Z " />
<glyph glyph-name="divisionslash" unicode="&#x2215;" horiz-adv-x="460" d="M0 0 L40 0 L460 750 L420 750 L0 0 L0 0 Z " />
<glyph glyph-name="bulletoperator" unicode="&#x2219;" horiz-adv-x="225" d="M50 198 L175 198 L175 323 L50 323 L50 198 L50 198 Z " />
<glyph glyph-name="F_sc" unicode="&#xa730;" horiz-adv-x="536" d="M476 263 L476 353 L206 353 L206 503 L506 503 L506 597 L90 597 L90 0 L206 0 L206 263 L476 263 L476 263 Z " />
<glyph glyph-name="S_sc" unicode="&#xa731;" horiz-adv-x="552" d="M34 267 C34 254 37 180 39 180 C60 19 147 -9 295 -9 C455 -9 517 52 517 167 C517 287 454 342 290 365 C196 378 159 401 159 447 C159 484 190 503 250 503 C312 503 351 483 391 357 L496 390 C437 577 367 606 250 606 C112 606 40 547 40 434 C40 323 101 271 258 249 C361 234 401 210 401 163 C401 116 371 92 295 92 C203 92 154 115 154 263 L39 267 L37 267 L39 267 L39 267 L34 267 L34 267 Z " />
<glyph glyph-name="X_sc" unicode="&#xf078;" horiz-adv-x="561" d="M187 50 L294 209 L396 45 C400 39 425 0 425 0 L547 0 L518 47 C517 49 517 50 517 50 L359 304 L553 593 C555 596 556 597 556 597 L421 597 C418 592 387 547 388 547 L294 408 L205 550 C202 555 175 597 175 597 L52 597 L80 552 C82 549 83 548 83 548 L229 314 L21 5 C19 2 18 1 18 1 L153 1 C156 6 187 51 186 51 L187 50 L187 50 Z " />
</font>
</svg>
